ISO-10303-21;
HEADER;
/* Generated by software containing ST-Developer
 * from STEP Tools, Inc. (www.steptools.com) 
 */
/* OPTION: using custom renumber hook */

FILE_DESCRIPTION(
/* description */ ('STEP AP242 Edition 2',
'CAx-IF Rec.Pracs.---Representation and Presentation of Product Manufa
cturing Information (PMI)---4.0---2014-10-13',
'CAx-IF Rec.Pracs.---3D Tessellated Geometry---0.4---2014-09-14','2;1',
'CAx-IF Rec.Pracs.---User Defined Attributes---1.5---2016-08-15'),
/* implementation_level */ '2;1');

FILE_NAME(
/* name */ 'Base - Part 2',
/* time_stamp */ '2026-08-11T20:29:00Z',
/* author */ (''),
/* organization */ (''),
/* preprocessor_version */ 'ST-DEVELOPER v20',
/* originating_system */ 'ONSHAPE BY PTC INC, 1.219',
/* authorisation */ '  ');

FILE_SCHEMA (('AP242_MANAGED_MODEL_BASED_3D_ENGINEERING_MIM_LF { 1 0 10303 442 3 1 4 }'));
ENDSEC;

DATA;
#10=SHAPE_REPRESENTATION_RELATIONSHIP('','',#113,#11);
#11=ADVANCED_BREP_SHAPE_REPRESENTATION('',(#111),#179);
#12=PLANE('',#118);
#13=PLANE('',#119);
#14=PLANE('',#120);
#15=PLANE('',#121);
#16=PLANE('',#122);
#17=LINE('',#156,#27);
#18=LINE('',#160,#28);
#19=LINE('',#162,#29);
#20=LINE('',#165,#30);
#21=LINE('',#166,#31);
#22=LINE('',#168,#32);
#23=LINE('',#170,#33);
#24=LINE('',#172,#34);
#25=LINE('',#174,#35);
#26=LINE('',#175,#36);
#27=VECTOR('',#129,1.);
#28=VECTOR('',#132,1.);
#29=VECTOR('',#135,1.);
#30=VECTOR('',#136,1.);
#31=VECTOR('',#137,1.);
#32=VECTOR('',#140,1.);
#33=VECTOR('',#141,1.);
#34=VECTOR('',#142,1.);
#35=VECTOR('',#145,1.);
#36=VECTOR('',#146,1.);
#37=ORIENTED_EDGE('',*,*,#61,.F.);
#38=ORIENTED_EDGE('',*,*,#62,.T.);
#39=ORIENTED_EDGE('',*,*,#63,.T.);
#40=ORIENTED_EDGE('',*,*,#64,.F.);
#41=ORIENTED_EDGE('',*,*,#65,.F.);
#42=ORIENTED_EDGE('',*,*,#66,.T.);
#43=ORIENTED_EDGE('',*,*,#64,.T.);
#44=ORIENTED_EDGE('',*,*,#67,.F.);
#45=ORIENTED_EDGE('',*,*,#68,.F.);
#46=ORIENTED_EDGE('',*,*,#65,.T.);
#47=ORIENTED_EDGE('',*,*,#69,.T.);
#48=ORIENTED_EDGE('',*,*,#70,.F.);
#49=ORIENTED_EDGE('',*,*,#71,.F.);
#50=ORIENTED_EDGE('',*,*,#70,.T.);
#51=ORIENTED_EDGE('',*,*,#72,.T.);
#52=ORIENTED_EDGE('',*,*,#62,.F.);
#53=ORIENTED_EDGE('',*,*,#63,.F.);
#54=ORIENTED_EDGE('',*,*,#72,.F.);
#55=ORIENTED_EDGE('',*,*,#69,.F.);
#56=ORIENTED_EDGE('',*,*,#67,.T.);
#57=ORIENTED_EDGE('',*,*,#71,.T.);
#58=ORIENTED_EDGE('',*,*,#61,.T.);
#59=ORIENTED_EDGE('',*,*,#66,.F.);
#60=ORIENTED_EDGE('',*,*,#68,.T.);
#61=EDGE_CURVE('',#73,#74,#81,.T.);
#62=EDGE_CURVE('',#73,#75,#17,.T.);
#63=EDGE_CURVE('',#75,#76,#82,.T.);
#64=EDGE_CURVE('',#74,#76,#18,.T.);
#65=EDGE_CURVE('',#77,#78,#19,.T.);
#66=EDGE_CURVE('',#77,#74,#20,.T.);
#67=EDGE_CURVE('',#78,#76,#21,.T.);
#68=EDGE_CURVE('',#77,#79,#22,.T.);
#69=EDGE_CURVE('',#78,#80,#23,.T.);
#70=EDGE_CURVE('',#79,#80,#24,.T.);
#71=EDGE_CURVE('',#79,#73,#25,.T.);
#72=EDGE_CURVE('',#80,#75,#26,.T.);
#73=VERTEX_POINT('',#154);
#74=VERTEX_POINT('',#155);
#75=VERTEX_POINT('',#157);
#76=VERTEX_POINT('',#159);
#77=VERTEX_POINT('',#163);
#78=VERTEX_POINT('',#164);
#79=VERTEX_POINT('',#169);
#80=VERTEX_POINT('',#171);
#81=CIRCLE('',#116,0.06);
#82=CIRCLE('',#117,0.06);
#83=EDGE_LOOP('',(#37,#38,#39,#40));
#84=EDGE_LOOP('',(#41,#42,#43,#44));
#85=EDGE_LOOP('',(#45,#46,#47,#48));
#86=EDGE_LOOP('',(#49,#50,#51,#52));
#87=EDGE_LOOP('',(#53,#54,#55,#56));
#88=EDGE_LOOP('',(#57,#58,#59,#60));
#89=FACE_BOUND('',#83,.T.);
#90=FACE_BOUND('',#84,.T.);
#91=FACE_BOUND('',#85,.T.);
#92=FACE_BOUND('',#86,.T.);
#93=FACE_BOUND('',#87,.T.);
#94=FACE_BOUND('',#88,.T.);
#95=CYLINDRICAL_SURFACE('',#115,0.06);
#96=ADVANCED_FACE('',(#89),#95,.T.);
#97=ADVANCED_FACE('',(#90),#12,.T.);
#98=ADVANCED_FACE('',(#91),#13,.F.);
#99=ADVANCED_FACE('',(#92),#14,.F.);
#100=ADVANCED_FACE('',(#93),#15,.F.);
#101=ADVANCED_FACE('',(#94),#16,.T.);
#102=CLOSED_SHELL('',(#96,#97,#98,#99,#100,#101));
#103=STYLED_ITEM('',(#104),#111);
#104=PRESENTATION_STYLE_ASSIGNMENT((#105));
#105=SURFACE_STYLE_USAGE(.BOTH.,#106);
#106=SURFACE_SIDE_STYLE('',(#107));
#107=SURFACE_STYLE_FILL_AREA(#108);
#108=FILL_AREA_STYLE('',(#109));
#109=FILL_AREA_STYLE_COLOUR('',#110);
#110=COLOUR_RGB('',0.647058823529412,0.647058823529412,0.647058823529412);
#111=MANIFOLD_SOLID_BREP('Part 2',#102);
#112=SHAPE_DEFINITION_REPRESENTATION(#184,#113);
#113=SHAPE_REPRESENTATION('Part 2',(#114),#179);
#114=AXIS2_PLACEMENT_3D('',#151,#123,#124);
#115=AXIS2_PLACEMENT_3D('',#152,#125,#126);
#116=AXIS2_PLACEMENT_3D('',#153,#127,#128);
#117=AXIS2_PLACEMENT_3D('',#158,#130,#131);
#118=AXIS2_PLACEMENT_3D('',#161,#133,#134);
#119=AXIS2_PLACEMENT_3D('',#167,#138,#139);
#120=AXIS2_PLACEMENT_3D('',#173,#143,#144);
#121=AXIS2_PLACEMENT_3D('',#176,#147,#148);
#122=AXIS2_PLACEMENT_3D('',#177,#149,#150);
#123=DIRECTION('',(0.,0.,1.));
#124=DIRECTION('',(1.,0.,0.));
#125=DIRECTION('',(0.,0.,-1.));
#126=DIRECTION('',(-1.,0.,0.));
#127=DIRECTION('',(0.,0.,1.));
#128=DIRECTION('',(1.,0.,0.));
#129=DIRECTION('',(0.,0.,-1.));
#130=DIRECTION('',(0.,0.,1.));
#131=DIRECTION('',(1.,0.,0.));
#132=DIRECTION('',(0.,0.,-1.));
#133=DIRECTION('',(1.,1.98980594640697E-17,0.));
#134=DIRECTION('',(-1.98980594640697E-17,1.,0.));
#135=DIRECTION('',(0.,0.,-1.));
#136=DIRECTION('',(1.98980594640697E-17,-1.,0.));
#137=DIRECTION('',(1.98980594640697E-17,-1.,0.));
#138=DIRECTION('',(0.,-1.,0.));
#139=DIRECTION('',(0.,0.,-1.));
#140=DIRECTION('',(-1.,0.,0.));
#141=DIRECTION('',(-1.,0.,0.));
#142=DIRECTION('',(0.,0.,-1.));
#143=DIRECTION('',(1.,0.,0.));
#144=DIRECTION('',(0.,0.,-1.));
#145=DIRECTION('',(0.,-1.,0.));
#146=DIRECTION('',(0.,-1.,0.));
#147=DIRECTION('',(0.,0.,1.));
#148=DIRECTION('',(1.,0.,0.));
#149=DIRECTION('',(0.,0.,1.));
#150=DIRECTION('',(1.,0.,0.));
#151=CARTESIAN_POINT('',(0.,0.,0.));
#152=CARTESIAN_POINT('',(4.59260962683209E-17,-1.10328413072125E-15,0.010002));
#153=CARTESIAN_POINT('',(4.59260962683209E-17,-1.10328413072125E-15,0.01));
#154=CARTESIAN_POINT('',(-0.007,-0.0595902676617594,0.01));
#155=CARTESIAN_POINT('',(0.007,-0.0595902676617594,0.01));
#156=CARTESIAN_POINT('',(-0.007,-0.0595902676617594,0.010002));
#157=CARTESIAN_POINT('',(-0.007,-0.0595902676617594,0.007));
#158=CARTESIAN_POINT('',(4.59260962683209E-17,-1.10328413072125E-15,0.007));
#159=CARTESIAN_POINT('',(0.007,-0.0595902676617594,0.007));
#160=CARTESIAN_POINT('',(0.007,-0.0595902676617594,0.010002));
#161=CARTESIAN_POINT('',(0.007,-0.0377951338308797,0.010002));
#162=CARTESIAN_POINT('',(0.007,-0.016,0.010002));
#163=CARTESIAN_POINT('',(0.007,-0.016,0.01));
#164=CARTESIAN_POINT('',(0.007,-0.016,0.007));
#165=CARTESIAN_POINT('',(0.007,-0.0377951338308797,0.01));
#166=CARTESIAN_POINT('',(0.007,-0.0377951338308797,0.007));
#167=CARTESIAN_POINT('',(-0.006,-0.016,0.010002));
#168=CARTESIAN_POINT('',(-0.006,-0.016,0.01));
#169=CARTESIAN_POINT('',(-0.007,-0.016,0.01));
#170=CARTESIAN_POINT('',(-0.006,-0.016,0.007));
#171=CARTESIAN_POINT('',(-0.007,-0.016,0.007));
#172=CARTESIAN_POINT('',(-0.007,-0.016,0.010002));
#173=CARTESIAN_POINT('',(-0.007,-0.0377951338308797,0.010002));
#174=CARTESIAN_POINT('',(-0.007,-0.0377951338308797,0.01));
#175=CARTESIAN_POINT('',(-0.007,-0.0377951338308797,0.007));
#176=CARTESIAN_POINT('',(0.,0.,0.007));
#177=CARTESIAN_POINT('',(0.,0.,0.01));
#178=MECHANICAL_DESIGN_GEOMETRIC_PRESENTATION_REPRESENTATION('',(#103),
#179);
#179=(
GEOMETRIC_REPRESENTATION_CONTEXT(3)
GLOBAL_UNCERTAINTY_ASSIGNED_CONTEXT((#180))
GLOBAL_UNIT_ASSIGNED_CONTEXT((#183,#182,#181))
REPRESENTATION_CONTEXT('Part 2','TOP_LEVEL_ASSEMBLY_PART')
);
#180=UNCERTAINTY_MEASURE_WITH_UNIT(LENGTH_MEASURE(1.E-8),#183,
'DISTANCE_ACCURACY_VALUE','Maximum Tolerance applied to model');
#181=(
NAMED_UNIT(*)
SI_UNIT($,.STERADIAN.)
SOLID_ANGLE_UNIT()
);
#182=(
NAMED_UNIT(*)
PLANE_ANGLE_UNIT()
SI_UNIT($,.RADIAN.)
);
#183=(
LENGTH_UNIT()
NAMED_UNIT(*)
SI_UNIT($,.METRE.)
);
#184=PRODUCT_DEFINITION_SHAPE('','',#185);
#185=PRODUCT_DEFINITION('','',#187,#186);
#186=PRODUCT_DEFINITION_CONTEXT('',#193,'design');
#187=PRODUCT_DEFINITION_FORMATION_WITH_SPECIFIED_SOURCE('','',#189,
 .NOT_KNOWN.);
#188=PRODUCT_RELATED_PRODUCT_CATEGORY('','',(#189));
#189=PRODUCT('Part 2','Part 2','Part 2',(#191));
#190=PRODUCT_CATEGORY('','');
#191=PRODUCT_CONTEXT('',#193,'mechanical');
#192=APPLICATION_PROTOCOL_DEFINITION('international standard',
'ap242_managed_model_based_3d_engineering',2020,#193);
#193=APPLICATION_CONTEXT('managed model based 3d engineering');
ENDSEC;
END-ISO-10303-21;
