ISO-10303-21;
HEADER;
/* Generated by software containing ST-Developer
 * from STEP Tools, Inc. (www.steptools.com) 
 */
/* OPTION: using custom renumber hook */

FILE_DESCRIPTION(
/* description */ ('STEP AP242 Edition 2',
'CAx-IF Rec.Pracs.---Representation and Presentation of Product Manufa
cturing Information (PMI)---4.0---2014-10-13',
'CAx-IF Rec.Pracs.---3D Tessellated Geometry---0.4---2014-09-14','2;1',
'CAx-IF Rec.Pracs.---User Defined Attributes---1.5---2016-08-15'),
/* implementation_level */ '2;1');

FILE_NAME(
/* name */ 'Base - Part 1',
/* time_stamp */ '2026-08-11T20:23:43Z',
/* author */ (''),
/* organization */ (''),
/* preprocessor_version */ 'ST-DEVELOPER v20',
/* originating_system */ 'ONSHAPE BY PTC INC, 1.219',
/* authorisation */ '  ');

FILE_SCHEMA (('AP242_MANAGED_MODEL_BASED_3D_ENGINEERING_MIM_LF { 1 0 10303 442 3 1 4 }'));
ENDSEC;

DATA;
#10=SHAPE_REPRESENTATION_RELATIONSHIP('','',#275,#11);
#11=ADVANCED_BREP_SHAPE_REPRESENTATION('',(#273),#449);
#12=CYLINDRICAL_SURFACE('',#283,0.06);
#13=CYLINDRICAL_SURFACE('',#288,0.005);
#14=CYLINDRICAL_SURFACE('',#299,0.00125);
#15=CYLINDRICAL_SURFACE('',#300,0.00125);
#16=CIRCLE('',#279,0.00125);
#17=CIRCLE('',#280,0.00125);
#18=CIRCLE('',#281,0.005);
#19=CIRCLE('',#282,0.06);
#20=CIRCLE('',#284,0.06);
#21=CIRCLE('',#285,0.06);
#22=CIRCLE('',#286,0.06);
#23=CIRCLE('',#289,0.005);
#24=CIRCLE('',#291,0.00125);
#25=CIRCLE('',#292,0.00125);
#26=ORIENTED_EDGE('',*,*,#94,.F.);
#27=ORIENTED_EDGE('',*,*,#95,.T.);
#28=ORIENTED_EDGE('',*,*,#96,.T.);
#29=ORIENTED_EDGE('',*,*,#97,.F.);
#30=ORIENTED_EDGE('',*,*,#98,.F.);
#31=ORIENTED_EDGE('',*,*,#99,.T.);
#32=ORIENTED_EDGE('',*,*,#100,.F.);
#33=ORIENTED_EDGE('',*,*,#101,.F.);
#34=ORIENTED_EDGE('',*,*,#102,.F.);
#35=ORIENTED_EDGE('',*,*,#99,.F.);
#36=ORIENTED_EDGE('',*,*,#103,.F.);
#37=ORIENTED_EDGE('',*,*,#104,.T.);
#38=ORIENTED_EDGE('',*,*,#105,.T.);
#39=ORIENTED_EDGE('',*,*,#106,.T.);
#40=ORIENTED_EDGE('',*,*,#107,.T.);
#41=ORIENTED_EDGE('',*,*,#108,.F.);
#42=ORIENTED_EDGE('',*,*,#109,.F.);
#43=ORIENTED_EDGE('',*,*,#110,.T.);
#44=ORIENTED_EDGE('',*,*,#107,.F.);
#45=ORIENTED_EDGE('',*,*,#111,.F.);
#46=ORIENTED_EDGE('',*,*,#112,.F.);
#47=ORIENTED_EDGE('',*,*,#113,.T.);
#48=ORIENTED_EDGE('',*,*,#114,.T.);
#49=ORIENTED_EDGE('',*,*,#96,.F.);
#50=ORIENTED_EDGE('',*,*,#115,.F.);
#51=ORIENTED_EDGE('',*,*,#116,.T.);
#52=ORIENTED_EDGE('',*,*,#104,.F.);
#53=ORIENTED_EDGE('',*,*,#117,.T.);
#54=ORIENTED_EDGE('',*,*,#118,.T.);
#55=ORIENTED_EDGE('',*,*,#113,.F.);
#56=ORIENTED_EDGE('',*,*,#119,.F.);
#57=ORIENTED_EDGE('',*,*,#117,.F.);
#58=ORIENTED_EDGE('',*,*,#103,.T.);
#59=ORIENTED_EDGE('',*,*,#98,.T.);
#60=ORIENTED_EDGE('',*,*,#120,.T.);
#61=ORIENTED_EDGE('',*,*,#121,.T.);
#62=ORIENTED_EDGE('',*,*,#118,.F.);
#63=ORIENTED_EDGE('',*,*,#119,.T.);
#64=ORIENTED_EDGE('',*,*,#97,.T.);
#65=ORIENTED_EDGE('',*,*,#114,.F.);
#66=ORIENTED_EDGE('',*,*,#105,.F.);
#67=ORIENTED_EDGE('',*,*,#116,.F.);
#68=ORIENTED_EDGE('',*,*,#122,.T.);
#69=ORIENTED_EDGE('',*,*,#123,.T.);
#70=ORIENTED_EDGE('',*,*,#106,.F.);
#71=ORIENTED_EDGE('',*,*,#123,.F.);
#72=ORIENTED_EDGE('',*,*,#124,.T.);
#73=ORIENTED_EDGE('',*,*,#111,.T.);
#74=ORIENTED_EDGE('',*,*,#122,.F.);
#75=ORIENTED_EDGE('',*,*,#115,.T.);
#76=ORIENTED_EDGE('',*,*,#112,.T.);
#77=ORIENTED_EDGE('',*,*,#124,.F.);
#78=ORIENTED_EDGE('',*,*,#102,.T.);
#79=ORIENTED_EDGE('',*,*,#125,.F.);
#80=ORIENTED_EDGE('',*,*,#126,.F.);
#81=ORIENTED_EDGE('',*,*,#94,.T.);
#82=ORIENTED_EDGE('',*,*,#108,.T.);
#83=ORIENTED_EDGE('',*,*,#110,.F.);
#84=ORIENTED_EDGE('',*,*,#127,.F.);
#85=ORIENTED_EDGE('',*,*,#125,.T.);
#86=ORIENTED_EDGE('',*,*,#95,.F.);
#87=ORIENTED_EDGE('',*,*,#126,.T.);
#88=ORIENTED_EDGE('',*,*,#127,.T.);
#89=ORIENTED_EDGE('',*,*,#109,.T.);
#90=ORIENTED_EDGE('',*,*,#101,.T.);
#91=ORIENTED_EDGE('',*,*,#121,.F.);
#92=ORIENTED_EDGE('',*,*,#100,.T.);
#93=ORIENTED_EDGE('',*,*,#120,.F.);
#94=EDGE_CURVE('',#128,#129,#152,.T.);
#95=EDGE_CURVE('',#128,#130,#153,.T.);
#96=EDGE_CURVE('',#130,#131,#154,.T.);
#97=EDGE_CURVE('',#132,#131,#155,.T.);
#98=EDGE_CURVE('',#133,#132,#156,.T.);
#99=EDGE_CURVE('',#133,#129,#157,.T.);
#100=EDGE_CURVE('',#134,#134,#16,.T.);
#101=EDGE_CURVE('',#135,#135,#17,.T.);
#102=EDGE_CURVE('',#129,#136,#158,.T.);
#103=EDGE_CURVE('',#137,#133,#18,.T.);
#104=EDGE_CURVE('',#137,#138,#159,.T.);
#105=EDGE_CURVE('',#138,#139,#160,.T.);
#106=EDGE_CURVE('',#139,#140,#161,.T.);
#107=EDGE_CURVE('',#140,#141,#19,.T.);
#108=EDGE_CURVE('',#136,#141,#162,.T.);
#109=EDGE_CURVE('',#142,#130,#20,.T.);
#110=EDGE_CURVE('',#142,#141,#163,.T.);
#111=EDGE_CURVE('',#143,#140,#164,.T.);
#112=EDGE_CURVE('',#144,#143,#21,.T.);
#113=EDGE_CURVE('',#144,#145,#165,.T.);
#114=EDGE_CURVE('',#145,#131,#22,.T.);
#115=EDGE_CURVE('',#146,#144,#166,.T.);
#116=EDGE_CURVE('',#146,#138,#167,.T.);
#117=EDGE_CURVE('',#137,#147,#168,.T.);
#118=EDGE_CURVE('',#147,#145,#169,.T.);
#119=EDGE_CURVE('',#147,#132,#23,.T.);
#120=EDGE_CURVE('',#148,#148,#24,.T.);
#121=EDGE_CURVE('',#149,#149,#25,.T.);
#122=EDGE_CURVE('',#146,#150,#170,.T.);
#123=EDGE_CURVE('',#150,#139,#171,.T.);
#124=EDGE_CURVE('',#150,#143,#172,.T.);
#125=EDGE_CURVE('',#151,#136,#173,.T.);
#126=EDGE_CURVE('',#128,#151,#174,.T.);
#127=EDGE_CURVE('',#151,#142,#175,.T.);
#128=VERTEX_POINT('',#378);
#129=VERTEX_POINT('',#379);
#130=VERTEX_POINT('',#381);
#131=VERTEX_POINT('',#383);
#132=VERTEX_POINT('',#385);
#133=VERTEX_POINT('',#387);
#134=VERTEX_POINT('',#391);
#135=VERTEX_POINT('',#393);
#136=VERTEX_POINT('',#395);
#137=VERTEX_POINT('',#397);
#138=VERTEX_POINT('',#399);
#139=VERTEX_POINT('',#401);
#140=VERTEX_POINT('',#403);
#141=VERTEX_POINT('',#405);
#142=VERTEX_POINT('',#409);
#143=VERTEX_POINT('',#412);
#144=VERTEX_POINT('',#414);
#145=VERTEX_POINT('',#416);
#146=VERTEX_POINT('',#420);
#147=VERTEX_POINT('',#423);
#148=VERTEX_POINT('',#429);
#149=VERTEX_POINT('',#431);
#150=VERTEX_POINT('',#434);
#151=VERTEX_POINT('',#441);
#152=LINE('',#377,#176);
#153=LINE('',#380,#177);
#154=LINE('',#382,#178);
#155=LINE('',#384,#179);
#156=LINE('',#386,#180);
#157=LINE('',#388,#181);
#158=LINE('',#394,#182);
#159=LINE('',#398,#183);
#160=LINE('',#400,#184);
#161=LINE('',#402,#185);
#162=LINE('',#406,#186);
#163=LINE('',#410,#187);
#164=LINE('',#411,#188);
#165=LINE('',#415,#189);
#166=LINE('',#419,#190);
#167=LINE('',#421,#191);
#168=LINE('',#422,#192);
#169=LINE('',#424,#193);
#170=LINE('',#433,#194);
#171=LINE('',#435,#195);
#172=LINE('',#437,#196);
#173=LINE('',#440,#197);
#174=LINE('',#442,#198);
#175=LINE('',#444,#199);
#176=VECTOR('',#305,1.);
#177=VECTOR('',#306,1.);
#178=VECTOR('',#307,1.);
#179=VECTOR('',#308,1.);
#180=VECTOR('',#309,1.);
#181=VECTOR('',#310,1.);
#182=VECTOR('',#317,1.);
#183=VECTOR('',#320,1.);
#184=VECTOR('',#321,1.);
#185=VECTOR('',#322,1.);
#186=VECTOR('',#325,1.);
#187=VECTOR('',#330,1.);
#188=VECTOR('',#331,1.);
#189=VECTOR('',#334,1.);
#190=VECTOR('',#339,1.);
#191=VECTOR('',#340,1.);
#192=VECTOR('',#341,1.);
#193=VECTOR('',#342,1.);
#194=VECTOR('',#355,1.);
#195=VECTOR('',#356,1.);
#196=VECTOR('',#359,1.);
#197=VECTOR('',#364,1.);
#198=VECTOR('',#365,1.);
#199=VECTOR('',#368,1.);
#200=EDGE_LOOP('',(#26,#27,#28,#29,#30,#31));
#201=EDGE_LOOP('',(#32));
#202=EDGE_LOOP('',(#33));
#203=EDGE_LOOP('',(#34,#35,#36,#37,#38,#39,#40,#41));
#204=EDGE_LOOP('',(#42,#43,#44,#45,#46,#47,#48,#49));
#205=EDGE_LOOP('',(#50,#51,#52,#53,#54,#55));
#206=EDGE_LOOP('',(#56,#57,#58,#59));
#207=EDGE_LOOP('',(#60));
#208=EDGE_LOOP('',(#61));
#209=EDGE_LOOP('',(#62,#63,#64,#65));
#210=EDGE_LOOP('',(#66,#67,#68,#69));
#211=EDGE_LOOP('',(#70,#71,#72,#73));
#212=EDGE_LOOP('',(#74,#75,#76,#77));
#213=EDGE_LOOP('',(#78,#79,#80,#81));
#214=EDGE_LOOP('',(#82,#83,#84,#85));
#215=EDGE_LOOP('',(#86,#87,#88,#89));
#216=EDGE_LOOP('',(#90));
#217=EDGE_LOOP('',(#91));
#218=EDGE_LOOP('',(#92));
#219=EDGE_LOOP('',(#93));
#220=FACE_BOUND('',#200,.T.);
#221=FACE_BOUND('',#201,.T.);
#222=FACE_BOUND('',#202,.T.);
#223=FACE_BOUND('',#203,.T.);
#224=FACE_BOUND('',#204,.T.);
#225=FACE_BOUND('',#205,.T.);
#226=FACE_BOUND('',#206,.T.);
#227=FACE_BOUND('',#207,.T.);
#228=FACE_BOUND('',#208,.T.);
#229=FACE_BOUND('',#209,.T.);
#230=FACE_BOUND('',#210,.T.);
#231=FACE_BOUND('',#211,.T.);
#232=FACE_BOUND('',#212,.T.);
#233=FACE_BOUND('',#213,.T.);
#234=FACE_BOUND('',#214,.T.);
#235=FACE_BOUND('',#215,.T.);
#236=FACE_BOUND('',#216,.T.);
#237=FACE_BOUND('',#217,.T.);
#238=FACE_BOUND('',#218,.T.);
#239=FACE_BOUND('',#219,.T.);
#240=PLANE('',#277);
#241=PLANE('',#278);
#242=PLANE('',#287);
#243=PLANE('',#290);
#244=PLANE('',#293);
#245=PLANE('',#294);
#246=PLANE('',#295);
#247=PLANE('',#296);
#248=PLANE('',#297);
#249=PLANE('',#298);
#250=ADVANCED_FACE('',(#220),#240,.T.);
#251=ADVANCED_FACE('',(#221,#222,#223),#241,.T.);
#252=ADVANCED_FACE('',(#224),#12,.T.);
#253=ADVANCED_FACE('',(#225),#242,.F.);
#254=ADVANCED_FACE('',(#226),#13,.F.);
#255=ADVANCED_FACE('',(#227,#228,#229),#243,.F.);
#256=ADVANCED_FACE('',(#230),#244,.T.);
#257=ADVANCED_FACE('',(#231),#245,.T.);
#258=ADVANCED_FACE('',(#232),#246,.T.);
#259=ADVANCED_FACE('',(#233),#247,.F.);
#260=ADVANCED_FACE('',(#234),#248,.F.);
#261=ADVANCED_FACE('',(#235),#249,.T.);
#262=ADVANCED_FACE('',(#236,#237),#14,.F.);
#263=ADVANCED_FACE('',(#238,#239),#15,.F.);
#264=CLOSED_SHELL('',(#250,#251,#252,#253,#254,#255,#256,#257,#258,#259,
#260,#261,#262,#263));
#265=STYLED_ITEM('',(#266),#273);
#266=PRESENTATION_STYLE_ASSIGNMENT((#267));
#267=SURFACE_STYLE_USAGE(.BOTH.,#268);
#268=SURFACE_SIDE_STYLE('',(#269));
#269=SURFACE_STYLE_FILL_AREA(#270);
#270=FILL_AREA_STYLE('',(#271));
#271=FILL_AREA_STYLE_COLOUR('',#272);
#272=COLOUR_RGB('',0.615686274509804,0.811764705882353,0.929411764705882);
#273=MANIFOLD_SOLID_BREP('Part 1',#264);
#274=SHAPE_DEFINITION_REPRESENTATION(#454,#275);
#275=SHAPE_REPRESENTATION('Part 1',(#276),#449);
#276=AXIS2_PLACEMENT_3D('',#375,#301,#302);
#277=AXIS2_PLACEMENT_3D('',#376,#303,#304);
#278=AXIS2_PLACEMENT_3D('',#389,#311,#312);
#279=AXIS2_PLACEMENT_3D('',#390,#313,#314);
#280=AXIS2_PLACEMENT_3D('',#392,#315,#316);
#281=AXIS2_PLACEMENT_3D('',#396,#318,#319);
#282=AXIS2_PLACEMENT_3D('',#404,#323,#324);
#283=AXIS2_PLACEMENT_3D('',#407,#326,#327);
#284=AXIS2_PLACEMENT_3D('',#408,#328,#329);
#285=AXIS2_PLACEMENT_3D('',#413,#332,#333);
#286=AXIS2_PLACEMENT_3D('',#417,#335,#336);
#287=AXIS2_PLACEMENT_3D('',#418,#337,#338);
#288=AXIS2_PLACEMENT_3D('',#425,#343,#344);
#289=AXIS2_PLACEMENT_3D('',#426,#345,#346);
#290=AXIS2_PLACEMENT_3D('',#427,#347,#348);
#291=AXIS2_PLACEMENT_3D('',#428,#349,#350);
#292=AXIS2_PLACEMENT_3D('',#430,#351,#352);
#293=AXIS2_PLACEMENT_3D('',#432,#353,#354);
#294=AXIS2_PLACEMENT_3D('',#436,#357,#358);
#295=AXIS2_PLACEMENT_3D('',#438,#360,#361);
#296=AXIS2_PLACEMENT_3D('',#439,#362,#363);
#297=AXIS2_PLACEMENT_3D('',#443,#366,#367);
#298=AXIS2_PLACEMENT_3D('',#445,#369,#370);
#299=AXIS2_PLACEMENT_3D('',#446,#371,#372);
#300=AXIS2_PLACEMENT_3D('',#447,#373,#374);
#301=DIRECTION('',(0.,0.,1.));
#302=DIRECTION('',(1.,0.,0.));
#303=DIRECTION('',(1.,0.,0.));
#304=DIRECTION('',(0.,0.,-1.));
#305=DIRECTION('',(0.,0.,1.));
#306=DIRECTION('',(0.,-1.,0.));
#307=DIRECTION('',(0.,0.,-1.));
#308=DIRECTION('',(0.,-1.,0.));
#309=DIRECTION('',(0.,0.,-1.));
#310=DIRECTION('',(0.,-1.,0.));
#311=DIRECTION('',(0.,0.,1.));
#312=DIRECTION('',(1.,0.,0.));
#313=DIRECTION('',(0.,0.,1.));
#314=DIRECTION('',(1.,0.,0.));
#315=DIRECTION('',(0.,0.,1.));
#316=DIRECTION('',(1.,0.,0.));
#317=DIRECTION('',(-1.,0.,0.));
#318=DIRECTION('',(0.,0.,1.));
#319=DIRECTION('',(1.,0.,0.));
#320=DIRECTION('',(0.,-1.,0.));
#321=DIRECTION('',(1.,0.,0.));
#322=DIRECTION('',(0.,-1.,0.));
#323=DIRECTION('',(0.,0.,1.));
#324=DIRECTION('',(1.,0.,0.));
#325=DIRECTION('',(0.,-1.,0.));
#326=DIRECTION('',(0.,0.,-1.));
#327=DIRECTION('',(-1.,0.,0.));
#328=DIRECTION('',(0.,0.,1.));
#329=DIRECTION('',(1.,0.,0.));
#330=DIRECTION('',(0.,0.,1.));
#331=DIRECTION('',(0.,0.,1.));
#332=DIRECTION('',(0.,0.,1.));
#333=DIRECTION('',(1.,0.,0.));
#334=DIRECTION('',(0.,0.,-1.));
#335=DIRECTION('',(0.,0.,1.));
#336=DIRECTION('',(1.,0.,0.));
#337=DIRECTION('',(1.,0.,0.));
#338=DIRECTION('',(0.,0.,-1.));
#339=DIRECTION('',(0.,-1.,0.));
#340=DIRECTION('',(0.,0.,1.));
#341=DIRECTION('',(0.,0.,-1.));
#342=DIRECTION('',(0.,-1.,0.));
#343=DIRECTION('',(0.,0.,-1.));
#344=DIRECTION('',(-1.,0.,0.));
#345=DIRECTION('',(0.,0.,1.));
#346=DIRECTION('',(1.,0.,0.));
#347=DIRECTION('',(0.,0.,1.));
#348=DIRECTION('',(1.,0.,0.));
#349=DIRECTION('',(0.,0.,1.));
#350=DIRECTION('',(1.,0.,0.));
#351=DIRECTION('',(0.,0.,1.));
#352=DIRECTION('',(1.,0.,0.));
#353=DIRECTION('',(0.,-1.,0.));
#354=DIRECTION('',(0.,0.,-1.));
#355=DIRECTION('',(1.,0.,0.));
#356=DIRECTION('',(0.,0.,1.));
#357=DIRECTION('',(-1.,0.,0.));
#358=DIRECTION('',(0.,0.,1.));
#359=DIRECTION('',(0.,-1.,0.));
#360=DIRECTION('',(0.,0.,1.));
#361=DIRECTION('',(1.,0.,0.));
#362=DIRECTION('',(0.,1.,0.));
#363=DIRECTION('',(0.,0.,1.));
#364=DIRECTION('',(0.,0.,1.));
#365=DIRECTION('',(-1.,0.,0.));
#366=DIRECTION('',(-1.,0.,0.));
#367=DIRECTION('',(0.,0.,1.));
#368=DIRECTION('',(0.,-1.,0.));
#369=DIRECTION('',(0.,0.,1.));
#370=DIRECTION('',(1.,0.,0.));
#371=DIRECTION('',(0.,0.,1.));
#372=DIRECTION('',(1.,0.,0.));
#373=DIRECTION('',(0.,0.,1.));
#374=DIRECTION('',(1.,0.,0.));
#375=CARTESIAN_POINT('',(0.,0.,0.));
#376=CARTESIAN_POINT('',(-0.005,-0.0298956518577535,0.01));
#377=CARTESIAN_POINT('',(-0.005,-0.016,0.007));
#378=CARTESIAN_POINT('',(-0.005,-0.016,0.007));
#379=CARTESIAN_POINT('',(-0.005,-0.016,0.01));
#380=CARTESIAN_POINT('',(-0.005,-0.0298956518577535,0.007));
#381=CARTESIAN_POINT('',(-0.005,-0.059791303715507,0.007));
#382=CARTESIAN_POINT('',(-0.005,-0.059791303715507,0.01));
#383=CARTESIAN_POINT('',(-0.005,-0.059791303715507,0.));
#384=CARTESIAN_POINT('',(-0.005,-0.0298956518577535,0.));
#385=CARTESIAN_POINT('',(-0.005,6.12323399573677E-19,0.));
#386=CARTESIAN_POINT('',(-0.005,6.12323399573677E-19,0.01));
#387=CARTESIAN_POINT('',(-0.005,6.12323399573677E-19,0.01));
#388=CARTESIAN_POINT('',(-0.005,-0.0298956518577535,0.01));
#389=CARTESIAN_POINT('',(0.,0.,0.01));
#390=CARTESIAN_POINT('',(-0.04,-2.71436877727223E-18,0.01));
#391=CARTESIAN_POINT('',(-0.03875,-2.71436877727223E-18,0.01));
#392=CARTESIAN_POINT('',(0.04,7.65404249467096E-20,0.01));
#393=CARTESIAN_POINT('',(0.04125,7.65404249467096E-20,0.01));
#394=CARTESIAN_POINT('',(-0.006,-0.016,0.01));
#395=CARTESIAN_POINT('',(-0.007,-0.016,0.01));
#396=CARTESIAN_POINT('',(0.,3.06161699786838E-19,0.01));
#397=CARTESIAN_POINT('',(0.005,0.,0.01));
#398=CARTESIAN_POINT('',(0.005,-0.0298956518577535,0.01));
#399=CARTESIAN_POINT('',(0.005,-0.016,0.01));
#400=CARTESIAN_POINT('',(0.006,-0.016,0.01));
#401=CARTESIAN_POINT('',(0.007,-0.016,0.01));
#402=CARTESIAN_POINT('',(0.007,-0.0377951338308797,0.01));
#403=CARTESIAN_POINT('',(0.007,-0.0595902676617594,0.01));
#404=CARTESIAN_POINT('',(4.59260962683209E-17,-1.10328413072125E-15,0.01));
#405=CARTESIAN_POINT('',(-0.007,-0.0595902676617594,0.01));
#406=CARTESIAN_POINT('',(-0.007,-0.0377951338308797,0.01));
#407=CARTESIAN_POINT('',(4.59260962683209E-17,-1.10328413072125E-15,0.01));
#408=CARTESIAN_POINT('',(4.59260962683209E-17,-1.10328413072125E-15,0.007));
#409=CARTESIAN_POINT('',(-0.007,-0.0595902676617594,0.007));
#410=CARTESIAN_POINT('',(-0.007,-0.0595902676617594,0.007));
#411=CARTESIAN_POINT('',(0.007,-0.0595902676617594,0.007));
#412=CARTESIAN_POINT('',(0.007,-0.0595902676617594,0.007));
#413=CARTESIAN_POINT('',(4.59260962683209E-17,-1.10328413072125E-15,0.007));
#414=CARTESIAN_POINT('',(0.005,-0.059791303715507,0.007));
#415=CARTESIAN_POINT('',(0.005,-0.059791303715507,0.01));
#416=CARTESIAN_POINT('',(0.005,-0.059791303715507,0.));
#417=CARTESIAN_POINT('',(4.59260962683209E-17,-1.10328413072125E-15,0.));
#418=CARTESIAN_POINT('',(0.005,-0.0298956518577535,0.01));
#419=CARTESIAN_POINT('',(0.005,-0.0298956518577535,0.007));
#420=CARTESIAN_POINT('',(0.005,-0.016,0.007));
#421=CARTESIAN_POINT('',(0.005,-0.016,0.007));
#422=CARTESIAN_POINT('',(0.005,0.,0.01));
#423=CARTESIAN_POINT('',(0.005,0.,0.));
#424=CARTESIAN_POINT('',(0.005,-0.0298956518577535,0.));
#425=CARTESIAN_POINT('',(0.,3.06161699786838E-19,0.01));
#426=CARTESIAN_POINT('',(0.,3.06161699786838E-19,0.));
#427=CARTESIAN_POINT('',(0.,0.,0.));
#428=CARTESIAN_POINT('',(-0.04,-2.71436877727223E-18,0.));
#429=CARTESIAN_POINT('',(-0.03875,-2.71436877727223E-18,0.));
#430=CARTESIAN_POINT('',(0.04,7.65404249467096E-20,0.));
#431=CARTESIAN_POINT('',(0.04125,7.65404249467096E-20,0.));
#432=CARTESIAN_POINT('',(0.006,-0.016,0.007));
#433=CARTESIAN_POINT('',(0.006,-0.016,0.007));
#434=CARTESIAN_POINT('',(0.007,-0.016,0.007));
#435=CARTESIAN_POINT('',(0.007,-0.016,0.007));
#436=CARTESIAN_POINT('',(0.007,-0.0377951338308797,0.007));
#437=CARTESIAN_POINT('',(0.007,-0.0377951338308797,0.007));
#438=CARTESIAN_POINT('',(5.55111512312578E-17,0.000104348142245955,0.007));
#439=CARTESIAN_POINT('',(-0.006,-0.016,0.007));
#440=CARTESIAN_POINT('',(-0.007,-0.016,0.007));
#441=CARTESIAN_POINT('',(-0.007,-0.016,0.007));
#442=CARTESIAN_POINT('',(-0.006,-0.016,0.007));
#443=CARTESIAN_POINT('',(-0.007,-0.0377951338308797,0.007));
#444=CARTESIAN_POINT('',(-0.007,-0.0377951338308797,0.007));
#445=CARTESIAN_POINT('',(5.55111512312578E-17,0.000104348142245955,0.007));
#446=CARTESIAN_POINT('',(0.04,7.65404249467096E-20,-0.159862749303215));
#447=CARTESIAN_POINT('',(-0.04,-2.71436877727223E-18,-0.159862749303215));
#448=MECHANICAL_DESIGN_GEOMETRIC_PRESENTATION_REPRESENTATION('',(#265),
#449);
#449=(
GEOMETRIC_REPRESENTATION_CONTEXT(3)
GLOBAL_UNCERTAINTY_ASSIGNED_CONTEXT((#450))
GLOBAL_UNIT_ASSIGNED_CONTEXT((#453,#452,#451))
REPRESENTATION_CONTEXT('Part 1','TOP_LEVEL_ASSEMBLY_PART')
);
#450=UNCERTAINTY_MEASURE_WITH_UNIT(LENGTH_MEASURE(1.E-8),#453,
'DISTANCE_ACCURACY_VALUE','Maximum Tolerance applied to model');
#451=(
NAMED_UNIT(*)
SI_UNIT($,.STERADIAN.)
SOLID_ANGLE_UNIT()
);
#452=(
NAMED_UNIT(*)
PLANE_ANGLE_UNIT()
SI_UNIT($,.RADIAN.)
);
#453=(
LENGTH_UNIT()
NAMED_UNIT(*)
SI_UNIT($,.METRE.)
);
#454=PRODUCT_DEFINITION_SHAPE('','',#455);
#455=PRODUCT_DEFINITION('','',#457,#456);
#456=PRODUCT_DEFINITION_CONTEXT('',#463,'design');
#457=PRODUCT_DEFINITION_FORMATION_WITH_SPECIFIED_SOURCE('','',#459,
 .NOT_KNOWN.);
#458=PRODUCT_RELATED_PRODUCT_CATEGORY('','',(#459));
#459=PRODUCT('Part 1','Part 1','Part 1',(#461));
#460=PRODUCT_CATEGORY('','');
#461=PRODUCT_CONTEXT('',#463,'mechanical');
#462=APPLICATION_PROTOCOL_DEFINITION('international standard',
'ap242_managed_model_based_3d_engineering',2020,#463);
#463=APPLICATION_CONTEXT('managed model based 3d engineering');
ENDSEC;
END-ISO-10303-21;
