ISO-10303-21;
HEADER;
/* Generated by software containing ST-Developer
 * from STEP Tools, Inc. (www.steptools.com) 
 */
/* OPTION: using custom renumber hook */

FILE_DESCRIPTION(
/* description */ ('STEP AP242 Edition 2',
'CAx-IF Rec.Pracs.---Representation and Presentation of Product Manufa
cturing Information (PMI)---4.0---2014-10-13',
'CAx-IF Rec.Pracs.---3D Tessellated Geometry---0.4---2014-09-14','2;1',
'CAx-IF Rec.Pracs.---User Defined Attributes---1.5---2016-08-15'),
/* implementation_level */ '2;1');

FILE_NAME(
/* name */ 'Horz_joint - Part 1',
/* time_stamp */ '2026-08-11T20:24:52Z',
/* author */ (''),
/* organization */ (''),
/* preprocessor_version */ 'ST-DEVELOPER v20',
/* originating_system */ 'ONSHAPE BY PTC INC, 1.219',
/* authorisation */ '  ');

FILE_SCHEMA (('AP242_MANAGED_MODEL_BASED_3D_ENGINEERING_MIM_LF { 1 0 10303 442 3 1 4 }'));
ENDSEC;

DATA;
#10=SHAPE_REPRESENTATION_RELATIONSHIP('','',#307,#11);
#11=ADVANCED_BREP_SHAPE_REPRESENTATION('',(#305),#526);
#12=PLANE('',#318);
#13=PLANE('',#319);
#14=PLANE('',#320);
#15=PLANE('',#321);
#16=PLANE('',#322);
#17=PLANE('',#323);
#18=PLANE('',#325);
#19=PLANE('',#334);
#20=PLANE('',#337);
#21=PLANE('',#340);
#22=PLANE('',#341);
#23=ELLIPSE('',#314,0.0212132034355964,0.015);
#24=ELLIPSE('',#315,0.0212132034355964,0.015);
#25=ELLIPSE('',#316,0.0212132034355964,0.015);
#26=CIRCLE('',#310,0.0045);
#27=CIRCLE('',#311,0.0045);
#28=CIRCLE('',#313,0.015);
#29=CIRCLE('',#317,0.015);
#30=CIRCLE('',#324,0.005);
#31=CIRCLE('',#326,0.005);
#32=CIRCLE('',#327,0.015);
#33=CIRCLE('',#330,0.005);
#34=CIRCLE('',#331,0.005);
#35=CIRCLE('',#332,0.005);
#36=CIRCLE('',#333,0.005);
#37=CIRCLE('',#335,0.015);
#38=CIRCLE('',#338,0.015);
#39=B_SPLINE_CURVE_WITH_KNOTS('',3,(#442,#443,#444,#445),.UNSPECIFIED.,
 .F.,.F.,(4,4),(0.,0.00213256082259319),.UNSPECIFIED.);
#40=B_SPLINE_CURVE_WITH_KNOTS('',3,(#453,#454,#455,#456),.UNSPECIFIED.,
 .F.,.F.,(4,4),(5.07610442859724E-18,0.00213295321884355),.UNSPECIFIED.);
#41=ORIENTED_EDGE('',*,*,#123,.T.);
#42=ORIENTED_EDGE('',*,*,#124,.T.);
#43=ORIENTED_EDGE('',*,*,#125,.T.);
#44=ORIENTED_EDGE('',*,*,#126,.T.);
#45=ORIENTED_EDGE('',*,*,#127,.T.);
#46=ORIENTED_EDGE('',*,*,#128,.F.);
#47=ORIENTED_EDGE('',*,*,#129,.F.);
#48=ORIENTED_EDGE('',*,*,#130,.T.);
#49=ORIENTED_EDGE('',*,*,#131,.T.);
#50=ORIENTED_EDGE('',*,*,#132,.T.);
#51=ORIENTED_EDGE('',*,*,#133,.T.);
#52=ORIENTED_EDGE('',*,*,#134,.T.);
#53=ORIENTED_EDGE('',*,*,#135,.F.);
#54=ORIENTED_EDGE('',*,*,#136,.F.);
#55=ORIENTED_EDGE('',*,*,#137,.F.);
#56=ORIENTED_EDGE('',*,*,#138,.F.);
#57=ORIENTED_EDGE('',*,*,#139,.T.);
#58=ORIENTED_EDGE('',*,*,#140,.T.);
#59=ORIENTED_EDGE('',*,*,#141,.F.);
#60=ORIENTED_EDGE('',*,*,#142,.F.);
#61=ORIENTED_EDGE('',*,*,#134,.F.);
#62=ORIENTED_EDGE('',*,*,#143,.T.);
#63=ORIENTED_EDGE('',*,*,#144,.T.);
#64=ORIENTED_EDGE('',*,*,#145,.F.);
#65=ORIENTED_EDGE('',*,*,#146,.F.);
#66=ORIENTED_EDGE('',*,*,#129,.T.);
#67=ORIENTED_EDGE('',*,*,#147,.F.);
#68=ORIENTED_EDGE('',*,*,#139,.F.);
#69=ORIENTED_EDGE('',*,*,#148,.F.);
#70=ORIENTED_EDGE('',*,*,#149,.F.);
#71=ORIENTED_EDGE('',*,*,#150,.F.);
#72=ORIENTED_EDGE('',*,*,#151,.T.);
#73=ORIENTED_EDGE('',*,*,#152,.T.);
#74=ORIENTED_EDGE('',*,*,#141,.T.);
#75=ORIENTED_EDGE('',*,*,#153,.F.);
#76=ORIENTED_EDGE('',*,*,#127,.F.);
#77=ORIENTED_EDGE('',*,*,#154,.T.);
#78=ORIENTED_EDGE('',*,*,#147,.T.);
#79=ORIENTED_EDGE('',*,*,#128,.T.);
#80=ORIENTED_EDGE('',*,*,#153,.T.);
#81=ORIENTED_EDGE('',*,*,#140,.F.);
#82=ORIENTED_EDGE('',*,*,#135,.T.);
#83=ORIENTED_EDGE('',*,*,#123,.F.);
#84=ORIENTED_EDGE('',*,*,#142,.T.);
#85=ORIENTED_EDGE('',*,*,#133,.F.);
#86=ORIENTED_EDGE('',*,*,#155,.T.);
#87=ORIENTED_EDGE('',*,*,#156,.F.);
#88=ORIENTED_EDGE('',*,*,#143,.F.);
#89=ORIENTED_EDGE('',*,*,#157,.T.);
#90=ORIENTED_EDGE('',*,*,#151,.F.);
#91=ORIENTED_EDGE('',*,*,#137,.T.);
#92=ORIENTED_EDGE('',*,*,#136,.T.);
#93=ORIENTED_EDGE('',*,*,#152,.F.);
#94=ORIENTED_EDGE('',*,*,#157,.F.);
#95=ORIENTED_EDGE('',*,*,#148,.T.);
#96=ORIENTED_EDGE('',*,*,#138,.T.);
#97=ORIENTED_EDGE('',*,*,#158,.F.);
#98=ORIENTED_EDGE('',*,*,#155,.F.);
#99=ORIENTED_EDGE('',*,*,#159,.F.);
#100=ORIENTED_EDGE('',*,*,#160,.F.);
#101=ORIENTED_EDGE('',*,*,#144,.F.);
#102=ORIENTED_EDGE('',*,*,#156,.T.);
#103=ORIENTED_EDGE('',*,*,#150,.T.);
#104=ORIENTED_EDGE('',*,*,#161,.F.);
#105=ORIENTED_EDGE('',*,*,#131,.F.);
#106=ORIENTED_EDGE('',*,*,#162,.F.);
#107=ORIENTED_EDGE('',*,*,#145,.T.);
#108=ORIENTED_EDGE('',*,*,#160,.T.);
#109=ORIENTED_EDGE('',*,*,#130,.F.);
#110=ORIENTED_EDGE('',*,*,#146,.T.);
#111=ORIENTED_EDGE('',*,*,#162,.T.);
#112=ORIENTED_EDGE('',*,*,#125,.F.);
#113=ORIENTED_EDGE('',*,*,#161,.T.);
#114=ORIENTED_EDGE('',*,*,#149,.T.);
#115=ORIENTED_EDGE('',*,*,#163,.F.);
#116=ORIENTED_EDGE('',*,*,#126,.F.);
#117=ORIENTED_EDGE('',*,*,#163,.T.);
#118=ORIENTED_EDGE('',*,*,#154,.F.);
#119=ORIENTED_EDGE('',*,*,#159,.T.);
#120=ORIENTED_EDGE('',*,*,#132,.F.);
#121=ORIENTED_EDGE('',*,*,#158,.T.);
#122=ORIENTED_EDGE('',*,*,#124,.F.);
#123=EDGE_CURVE('',#164,#165,#191,.T.);
#124=EDGE_CURVE('',#165,#166,#192,.T.);
#125=EDGE_CURVE('',#166,#167,#193,.T.);
#126=EDGE_CURVE('',#167,#168,#39,.T.);
#127=EDGE_CURVE('',#168,#169,#194,.T.);
#128=EDGE_CURVE('',#170,#169,#26,.T.);
#129=EDGE_CURVE('',#171,#170,#195,.T.);
#130=EDGE_CURVE('',#171,#172,#40,.T.);
#131=EDGE_CURVE('',#172,#173,#196,.F.);
#132=EDGE_CURVE('',#173,#174,#197,.F.);
#133=EDGE_CURVE('',#174,#175,#198,.F.);
#134=EDGE_CURVE('',#175,#164,#27,.T.);
#135=EDGE_CURVE('',#176,#176,#28,.T.);
#136=EDGE_CURVE('',#177,#178,#23,.F.);
#137=EDGE_CURVE('',#179,#177,#24,.T.);
#138=EDGE_CURVE('',#180,#179,#25,.F.);
#139=EDGE_CURVE('',#180,#181,#199,.T.);
#140=EDGE_CURVE('',#181,#182,#29,.T.);
#141=EDGE_CURVE('',#178,#182,#200,.T.);
#142=EDGE_CURVE('',#164,#175,#201,.T.);
#143=EDGE_CURVE('',#183,#184,#202,.T.);
#144=EDGE_CURVE('',#184,#185,#203,.T.);
#145=EDGE_CURVE('',#186,#185,#204,.T.);
#146=EDGE_CURVE('',#171,#186,#205,.T.);
#147=EDGE_CURVE('',#181,#170,#206,.T.);
#148=EDGE_CURVE('',#183,#180,#207,.T.);
#149=EDGE_CURVE('',#187,#188,#208,.T.);
#150=EDGE_CURVE('',#189,#187,#209,.T.);
#151=EDGE_CURVE('',#189,#190,#210,.T.);
#152=EDGE_CURVE('',#190,#178,#211,.T.);
#153=EDGE_CURVE('',#169,#182,#212,.T.);
#154=EDGE_CURVE('',#168,#188,#213,.T.);
#155=EDGE_CURVE('',#174,#165,#30,.T.);
#156=EDGE_CURVE('',#184,#189,#31,.T.);
#157=EDGE_CURVE('',#183,#190,#32,.T.);
#158=EDGE_CURVE('',#165,#166,#33,.T.);
#159=EDGE_CURVE('',#173,#174,#34,.T.);
#160=EDGE_CURVE('',#185,#173,#35,.T.);
#161=EDGE_CURVE('',#166,#187,#36,.T.);
#162=EDGE_CURVE('',#186,#172,#37,.T.);
#163=EDGE_CURVE('',#167,#188,#38,.T.);
#164=VERTEX_POINT('',#436);
#165=VERTEX_POINT('',#437);
#166=VERTEX_POINT('',#439);
#167=VERTEX_POINT('',#441);
#168=VERTEX_POINT('',#446);
#169=VERTEX_POINT('',#448);
#170=VERTEX_POINT('',#450);
#171=VERTEX_POINT('',#452);
#172=VERTEX_POINT('',#457);
#173=VERTEX_POINT('',#459);
#174=VERTEX_POINT('',#461);
#175=VERTEX_POINT('',#463);
#176=VERTEX_POINT('',#467);
#177=VERTEX_POINT('',#469);
#178=VERTEX_POINT('',#470);
#179=VERTEX_POINT('',#472);
#180=VERTEX_POINT('',#474);
#181=VERTEX_POINT('',#476);
#182=VERTEX_POINT('',#478);
#183=VERTEX_POINT('',#484);
#184=VERTEX_POINT('',#485);
#185=VERTEX_POINT('',#487);
#186=VERTEX_POINT('',#489);
#187=VERTEX_POINT('',#495);
#188=VERTEX_POINT('',#496);
#189=VERTEX_POINT('',#498);
#190=VERTEX_POINT('',#500);
#191=LINE('',#435,#214);
#192=LINE('',#438,#215);
#193=LINE('',#440,#216);
#194=LINE('',#447,#217);
#195=LINE('',#451,#218);
#196=LINE('',#458,#219);
#197=LINE('',#460,#220);
#198=LINE('',#462,#221);
#199=LINE('',#475,#222);
#200=LINE('',#479,#223);
#201=LINE('',#481,#224);
#202=LINE('',#483,#225);
#203=LINE('',#486,#226);
#204=LINE('',#488,#227);
#205=LINE('',#490,#228);
#206=LINE('',#491,#229);
#207=LINE('',#492,#230);
#208=LINE('',#494,#231);
#209=LINE('',#497,#232);
#210=LINE('',#499,#233);
#211=LINE('',#501,#234);
#212=LINE('',#502,#235);
#213=LINE('',#503,#236);
#214=VECTOR('',#346,1.);
#215=VECTOR('',#347,1.);
#216=VECTOR('',#348,1.);
#217=VECTOR('',#349,1.);
#218=VECTOR('',#352,1.);
#219=VECTOR('',#353,1.);
#220=VECTOR('',#354,1.);
#221=VECTOR('',#355,1.);
#222=VECTOR('',#368,1.);
#223=VECTOR('',#371,1.);
#224=VECTOR('',#374,1.);
#225=VECTOR('',#377,1.);
#226=VECTOR('',#378,1.);
#227=VECTOR('',#379,1.);
#228=VECTOR('',#380,1.);
#229=VECTOR('',#381,1.);
#230=VECTOR('',#382,1.);
#231=VECTOR('',#385,1.);
#232=VECTOR('',#386,1.);
#233=VECTOR('',#387,1.);
#234=VECTOR('',#388,1.);
#235=VECTOR('',#389,1.);
#236=VECTOR('',#390,1.);
#237=EDGE_LOOP('',(#41,#42,#43,#44,#45,#46,#47,#48,#49,#50,#51,#52));
#238=EDGE_LOOP('',(#53));
#239=EDGE_LOOP('',(#54,#55,#56,#57,#58,#59));
#240=EDGE_LOOP('',(#60,#61));
#241=EDGE_LOOP('',(#62,#63,#64,#65,#66,#67,#68,#69));
#242=EDGE_LOOP('',(#70,#71,#72,#73,#74,#75,#76,#77));
#243=EDGE_LOOP('',(#78,#79,#80,#81));
#244=EDGE_LOOP('',(#82));
#245=EDGE_LOOP('',(#83,#84,#85,#86));
#246=EDGE_LOOP('',(#87,#88,#89,#90));
#247=EDGE_LOOP('',(#91,#92,#93,#94,#95,#96));
#248=EDGE_LOOP('',(#97,#98,#99,#100,#101,#102,#103,#104));
#249=EDGE_LOOP('',(#105,#106,#107,#108));
#250=EDGE_LOOP('',(#109,#110,#111));
#251=EDGE_LOOP('',(#112,#113,#114,#115));
#252=EDGE_LOOP('',(#116,#117,#118));
#253=EDGE_LOOP('',(#119,#120));
#254=EDGE_LOOP('',(#121,#122));
#255=FACE_BOUND('',#237,.T.);
#256=FACE_BOUND('',#238,.T.);
#257=FACE_BOUND('',#239,.T.);
#258=FACE_BOUND('',#240,.T.);
#259=FACE_BOUND('',#241,.T.);
#260=FACE_BOUND('',#242,.T.);
#261=FACE_BOUND('',#243,.T.);
#262=FACE_BOUND('',#244,.T.);
#263=FACE_BOUND('',#245,.T.);
#264=FACE_BOUND('',#246,.T.);
#265=FACE_BOUND('',#247,.T.);
#266=FACE_BOUND('',#248,.T.);
#267=FACE_BOUND('',#249,.T.);
#268=FACE_BOUND('',#250,.T.);
#269=FACE_BOUND('',#251,.T.);
#270=FACE_BOUND('',#252,.T.);
#271=FACE_BOUND('',#253,.T.);
#272=FACE_BOUND('',#254,.T.);
#273=CYLINDRICAL_SURFACE('',#309,0.0045);
#274=CYLINDRICAL_SURFACE('',#312,0.015);
#275=CYLINDRICAL_SURFACE('',#328,0.015);
#276=CYLINDRICAL_SURFACE('',#329,0.005);
#277=CYLINDRICAL_SURFACE('',#336,0.015);
#278=CYLINDRICAL_SURFACE('',#339,0.015);
#279=ADVANCED_FACE('',(#255),#273,.F.);
#280=ADVANCED_FACE('',(#256,#257),#274,.T.);
#281=ADVANCED_FACE('',(#258),#12,.F.);
#282=ADVANCED_FACE('',(#259),#13,.T.);
#283=ADVANCED_FACE('',(#260),#14,.T.);
#284=ADVANCED_FACE('',(#261),#15,.F.);
#285=ADVANCED_FACE('',(#262),#16,.T.);
#286=ADVANCED_FACE('',(#263),#17,.F.);
#287=ADVANCED_FACE('',(#264),#18,.T.);
#288=ADVANCED_FACE('',(#265),#275,.T.);
#289=ADVANCED_FACE('',(#266),#276,.F.);
#290=ADVANCED_FACE('',(#267),#19,.F.);
#291=ADVANCED_FACE('',(#268),#277,.T.);
#292=ADVANCED_FACE('',(#269),#20,.F.);
#293=ADVANCED_FACE('',(#270),#278,.T.);
#294=ADVANCED_FACE('',(#271),#21,.T.);
#295=ADVANCED_FACE('',(#272),#22,.T.);
#296=CLOSED_SHELL('',(#279,#280,#281,#282,#283,#284,#285,#286,#287,#288,
#289,#290,#291,#292,#293,#294,#295));
#297=STYLED_ITEM('',(#298),#305);
#298=PRESENTATION_STYLE_ASSIGNMENT((#299));
#299=SURFACE_STYLE_USAGE(.BOTH.,#300);
#300=SURFACE_SIDE_STYLE('',(#301));
#301=SURFACE_STYLE_FILL_AREA(#302);
#302=FILL_AREA_STYLE('',(#303));
#303=FILL_AREA_STYLE_COLOUR('',#304);
#304=COLOUR_RGB('',0.615686274509804,0.811764705882353,0.929411764705882);
#305=MANIFOLD_SOLID_BREP('Part 1',#296);
#306=SHAPE_DEFINITION_REPRESENTATION(#531,#307);
#307=SHAPE_REPRESENTATION('Part 1',(#308),#526);
#308=AXIS2_PLACEMENT_3D('',#433,#342,#343);
#309=AXIS2_PLACEMENT_3D('',#434,#344,#345);
#310=AXIS2_PLACEMENT_3D('',#449,#350,#351);
#311=AXIS2_PLACEMENT_3D('',#464,#356,#357);
#312=AXIS2_PLACEMENT_3D('',#465,#358,#359);
#313=AXIS2_PLACEMENT_3D('',#466,#360,#361);
#314=AXIS2_PLACEMENT_3D('',#468,#362,#363);
#315=AXIS2_PLACEMENT_3D('',#471,#364,#365);
#316=AXIS2_PLACEMENT_3D('',#473,#366,#367);
#317=AXIS2_PLACEMENT_3D('',#477,#369,#370);
#318=AXIS2_PLACEMENT_3D('',#480,#372,#373);
#319=AXIS2_PLACEMENT_3D('',#482,#375,#376);
#320=AXIS2_PLACEMENT_3D('',#493,#383,#384);
#321=AXIS2_PLACEMENT_3D('',#504,#391,#392);
#322=AXIS2_PLACEMENT_3D('',#505,#393,#394);
#323=AXIS2_PLACEMENT_3D('',#506,#395,#396);
#324=AXIS2_PLACEMENT_3D('',#507,#397,#398);
#325=AXIS2_PLACEMENT_3D('',#508,#399,#400);
#326=AXIS2_PLACEMENT_3D('',#509,#401,#402);
#327=AXIS2_PLACEMENT_3D('',#510,#403,#404);
#328=AXIS2_PLACEMENT_3D('',#511,#405,#406);
#329=AXIS2_PLACEMENT_3D('',#512,#407,#408);
#330=AXIS2_PLACEMENT_3D('',#513,#409,#410);
#331=AXIS2_PLACEMENT_3D('',#514,#411,#412);
#332=AXIS2_PLACEMENT_3D('',#515,#413,#414);
#333=AXIS2_PLACEMENT_3D('',#516,#415,#416);
#334=AXIS2_PLACEMENT_3D('',#517,#417,#418);
#335=AXIS2_PLACEMENT_3D('',#518,#419,#420);
#336=AXIS2_PLACEMENT_3D('',#519,#421,#422);
#337=AXIS2_PLACEMENT_3D('',#520,#423,#424);
#338=AXIS2_PLACEMENT_3D('',#521,#425,#426);
#339=AXIS2_PLACEMENT_3D('',#522,#427,#428);
#340=AXIS2_PLACEMENT_3D('',#523,#429,#430);
#341=AXIS2_PLACEMENT_3D('',#524,#431,#432);
#342=DIRECTION('',(0.,0.,1.));
#343=DIRECTION('',(1.,0.,0.));
#344=DIRECTION('',(0.,0.,-1.));
#345=DIRECTION('',(-1.,0.,0.));
#346=DIRECTION('',(0.,0.,-1.));
#347=DIRECTION('',(0.,0.,-1.));
#348=DIRECTION('',(0.,0.,-1.));
#349=DIRECTION('',(0.,0.,-1.));
#350=DIRECTION('',(0.,0.,1.));
#351=DIRECTION('',(1.,0.,0.));
#352=DIRECTION('',(0.,0.,-1.));
#353=DIRECTION('',(0.,0.,-1.));
#354=DIRECTION('',(0.,0.,-1.));
#355=DIRECTION('',(0.,0.,-1.));
#356=DIRECTION('',(0.,0.,1.));
#357=DIRECTION('',(1.,0.,0.));
#358=DIRECTION('',(0.,0.,-1.));
#359=DIRECTION('',(-1.,0.,0.));
#360=DIRECTION('',(0.,0.,1.));
#361=DIRECTION('',(1.,0.,0.));
#362=DIRECTION('',(-0.707106781186548,0.,-0.707106781186548));
#363=DIRECTION('',(0.707106781186548,0.,-0.707106781186548));
#364=DIRECTION('',(0.707106781186548,0.,-0.707106781186548));
#365=DIRECTION('',(-0.707106781186548,0.,-0.707106781186548));
#366=DIRECTION('',(-0.707106781186548,0.,-0.707106781186548));
#367=DIRECTION('',(0.707106781186548,0.,-0.707106781186548));
#368=DIRECTION('',(0.,0.,-1.));
#369=DIRECTION('',(0.,0.,1.));
#370=DIRECTION('',(1.,0.,0.));
#371=DIRECTION('',(0.,0.,-1.));
#372=DIRECTION('',(0.,0.,1.));
#373=DIRECTION('',(1.,0.,0.));
#374=DIRECTION('',(0.,1.,0.));
#375=DIRECTION('',(0.,-1.,0.));
#376=DIRECTION('',(0.,0.,-1.));
#377=DIRECTION('',(0.,0.,1.));
#378=DIRECTION('',(-1.,0.,0.));
#379=DIRECTION('',(0.,0.,1.));
#380=DIRECTION('',(-1.,0.,0.));
#381=DIRECTION('',(-1.,0.,0.));
#382=DIRECTION('',(-1.,0.,0.));
#383=DIRECTION('',(0.,1.,0.));
#384=DIRECTION('',(0.,0.,1.));
#385=DIRECTION('',(0.,0.,-1.));
#386=DIRECTION('',(-1.,0.,0.));
#387=DIRECTION('',(0.,0.,-1.));
#388=DIRECTION('',(-1.,0.,0.));
#389=DIRECTION('',(1.,0.,0.));
#390=DIRECTION('',(-1.,0.,0.));
#391=DIRECTION('',(0.,0.,1.));
#392=DIRECTION('',(1.,0.,0.));
#393=DIRECTION('',(0.,0.,1.));
#394=DIRECTION('',(1.,0.,0.));
#395=DIRECTION('',(1.,0.,0.));
#396=DIRECTION('',(0.,1.,0.));
#397=DIRECTION('',(1.,0.,0.));
#398=DIRECTION('',(0.,0.,-1.));
#399=DIRECTION('',(1.,0.,0.));
#400=DIRECTION('',(0.,1.,0.));
#401=DIRECTION('',(1.,0.,0.));
#402=DIRECTION('',(0.,0.,-1.));
#403=DIRECTION('',(1.,0.,0.));
#404=DIRECTION('',(0.,0.,-1.));
#405=DIRECTION('',(-1.,0.,0.));
#406=DIRECTION('',(0.,0.,1.));
#407=DIRECTION('',(-1.,0.,0.));
#408=DIRECTION('',(0.,0.,1.));
#409=DIRECTION('',(1.,0.,0.));
#410=DIRECTION('',(0.,0.,-1.));
#411=DIRECTION('',(1.,0.,0.));
#412=DIRECTION('',(0.,0.,-1.));
#413=DIRECTION('',(1.,0.,0.));
#414=DIRECTION('',(0.,0.,-1.));
#415=DIRECTION('',(1.,0.,0.));
#416=DIRECTION('',(0.,0.,-1.));
#417=DIRECTION('',(1.,0.,0.));
#418=DIRECTION('',(0.,1.,0.));
#419=DIRECTION('',(1.,0.,0.));
#420=DIRECTION('',(0.,0.,-1.));
#421=DIRECTION('',(-1.,0.,0.));
#422=DIRECTION('',(0.,0.,1.));
#423=DIRECTION('',(1.,0.,0.));
#424=DIRECTION('',(0.,1.,0.));
#425=DIRECTION('',(1.,0.,0.));
#426=DIRECTION('',(0.,0.,-1.));
#427=DIRECTION('',(-1.,0.,0.));
#428=DIRECTION('',(0.,0.,1.));
#429=DIRECTION('',(1.,0.,0.));
#430=DIRECTION('',(0.,1.,0.));
#431=DIRECTION('',(1.,0.,0.));
#432=DIRECTION('',(0.,1.,0.));
#433=CARTESIAN_POINT('',(0.,0.,0.));
#434=CARTESIAN_POINT('',(-2.16840434497101E-19,1.90893582203245E-19,0.07));
#435=CARTESIAN_POINT('',(0.,-0.0045,0.07));
#436=CARTESIAN_POINT('',(0.,-0.0045,0.07));
#437=CARTESIAN_POINT('',(0.,-0.0045,0.0581794494717703));
#438=CARTESIAN_POINT('',(0.,-0.0045,0.07));
#439=CARTESIAN_POINT('',(0.,-0.0045,0.0538205505282297));
#440=CARTESIAN_POINT('',(0.,-0.0045,0.07));
#441=CARTESIAN_POINT('',(0.,-0.0045,0.0416909119787458));
#442=CARTESIAN_POINT('',(0.,-0.0045,0.0416909119787458));
#443=CARTESIAN_POINT('',(0.000721373639294215,-0.0045,0.0416909119787458));
#444=CARTESIAN_POINT('',(0.00142562260713185,-0.00432775092606586,0.0416338517276412));
#445=CARTESIAN_POINT('',(0.00206155281280882,-0.004,0.0415431677051991));
#446=CARTESIAN_POINT('',(0.00206155281280882,-0.004,0.0415431677051991));
#447=CARTESIAN_POINT('',(0.00206155281280883,-0.004,0.07));
#448=CARTESIAN_POINT('',(0.00206155281280883,-0.004,0.));
#449=CARTESIAN_POINT('',(-2.16840434497101E-19,1.90893582203245E-19,0.));
#450=CARTESIAN_POINT('',(0.00206155281280883,0.004,0.));
#451=CARTESIAN_POINT('',(0.00206155281280883,0.004,0.07));
#452=CARTESIAN_POINT('',(0.00206155281280883,0.004,0.0415431677051991));
#453=CARTESIAN_POINT('',(0.00206155281280884,0.004,0.0415431677051991));
#454=CARTESIAN_POINT('',(0.00142581936833602,0.0043276495176624,0.0416338236693774));
#455=CARTESIAN_POINT('',(0.000721227290353237,0.0045,0.0416909119787458));
#456=CARTESIAN_POINT('',(4.64255202722299E-20,0.0045,0.0416909119787458));
#457=CARTESIAN_POINT('',(0.,0.0045,0.0416909119787458));
#458=CARTESIAN_POINT('',(0.,0.0045,0.07));
#459=CARTESIAN_POINT('',(0.,0.0045,0.0538205505282297));
#460=CARTESIAN_POINT('',(0.,0.0045,0.07));
#461=CARTESIAN_POINT('',(0.,0.0045,0.0581794494717704));
#462=CARTESIAN_POINT('',(0.,0.0045,0.07));
#463=CARTESIAN_POINT('',(0.,0.0045,0.07));
#464=CARTESIAN_POINT('',(-2.16840434497101E-19,1.90893582203245E-19,0.07));
#465=CARTESIAN_POINT('',(-1.04083408558608E-17,-2.04888273902219E-18,0.07));
#466=CARTESIAN_POINT('',(0.,1.10937868156376E-18,0.072));
#467=CARTESIAN_POINT('',(0.015,1.10937868156376E-18,0.072));
#468=CARTESIAN_POINT('',(-1.04083408558608E-17,1.45358062209387E-18,0.056));
#469=CARTESIAN_POINT('',(0.,-0.015,0.056));
#470=CARTESIAN_POINT('',(0.014456832294801,-0.004,0.041543167705199));
#471=CARTESIAN_POINT('',(-1.04083408558608E-17,1.45358062209387E-18,0.056));
#472=CARTESIAN_POINT('',(0.,0.015,0.056));
#473=CARTESIAN_POINT('',(-1.04083408558608E-17,1.45358062209387E-18,0.056));
#474=CARTESIAN_POINT('',(0.014456832294801,0.004,0.041543167705199));
#475=CARTESIAN_POINT('',(0.014456832294801,0.004,0.07));
#476=CARTESIAN_POINT('',(0.014456832294801,0.004,0.));
#477=CARTESIAN_POINT('',(-1.04083408558608E-17,-2.04888273902219E-18,0.));
#478=CARTESIAN_POINT('',(0.014456832294801,-0.004,0.));
#479=CARTESIAN_POINT('',(0.014456832294801,-0.004,0.07));
#480=CARTESIAN_POINT('',(-6.93889390390723E-18,0.,0.07));
#481=CARTESIAN_POINT('',(0.,0.,0.07));
#482=CARTESIAN_POINT('',(0.00328077640640442,0.004,0.07));
#483=CARTESIAN_POINT('',(0.025,0.004,0.052));
#484=CARTESIAN_POINT('',(0.025,0.004,0.0415431677051991));
#485=CARTESIAN_POINT('',(0.025,0.004,0.053));
#486=CARTESIAN_POINT('',(0.025,0.004,0.053));
#487=CARTESIAN_POINT('',(0.,0.004,0.053));
#488=CARTESIAN_POINT('',(0.,0.004,0.052));
#489=CARTESIAN_POINT('',(0.,0.004,0.0415431677051991));
#490=CARTESIAN_POINT('',(0.025,0.004,0.0415431677051991));
#491=CARTESIAN_POINT('',(0.00328077640640442,0.004,0.));
#492=CARTESIAN_POINT('',(0.025,0.004,0.0415431677051991));
#493=CARTESIAN_POINT('',(0.00947841614740048,-0.004,0.07));
#494=CARTESIAN_POINT('',(0.,-0.004,0.0462715838525995));
#495=CARTESIAN_POINT('',(0.,-0.004,0.053));
#496=CARTESIAN_POINT('',(0.,-0.004,0.0415431677051991));
#497=CARTESIAN_POINT('',(0.025,-0.004,0.053));
#498=CARTESIAN_POINT('',(0.025,-0.004,0.053));
#499=CARTESIAN_POINT('',(0.025,-0.004,0.0462715838525995));
#500=CARTESIAN_POINT('',(0.025,-0.004,0.0415431677051991));
#501=CARTESIAN_POINT('',(0.025,-0.004,0.0415431677051991));
#502=CARTESIAN_POINT('',(0.00947841614740048,-0.004,0.));
#503=CARTESIAN_POINT('',(0.025,-0.004,0.0415431677051991));
#504=CARTESIAN_POINT('',(0.,0.,0.));
#505=CARTESIAN_POINT('',(-6.93889390390723E-18,0.,0.072));
#506=CARTESIAN_POINT('',(0.,0.,0.056));
#507=CARTESIAN_POINT('',(0.,7.45672382863592E-18,0.056));
#508=CARTESIAN_POINT('',(0.025,0.,0.056));
#509=CARTESIAN_POINT('',(0.025,7.45672382863592E-18,0.056));
#510=CARTESIAN_POINT('',(0.025,4.95604398320993E-18,0.056));
#511=CARTESIAN_POINT('',(0.025,4.95604398320993E-18,0.056));
#512=CARTESIAN_POINT('',(0.025,7.45672382863592E-18,0.056));
#513=CARTESIAN_POINT('',(0.,7.45672382863592E-18,0.056));
#514=CARTESIAN_POINT('',(0.,7.45672382863592E-18,0.056));
#515=CARTESIAN_POINT('',(0.,7.45672382863592E-18,0.056));
#516=CARTESIAN_POINT('',(0.,7.45672382863592E-18,0.056));
#517=CARTESIAN_POINT('',(0.,0.,0.056));
#518=CARTESIAN_POINT('',(0.,4.95604398320993E-18,0.056));
#519=CARTESIAN_POINT('',(0.025,4.95604398320993E-18,0.056));
#520=CARTESIAN_POINT('',(0.,0.,0.056));
#521=CARTESIAN_POINT('',(0.,4.95604398320993E-18,0.056));
#522=CARTESIAN_POINT('',(0.025,4.95604398320993E-18,0.056));
#523=CARTESIAN_POINT('',(0.,3.46944695195361E-18,0.0562715838525995));
#524=CARTESIAN_POINT('',(0.,3.46944695195361E-18,0.0562715838525995));
#525=MECHANICAL_DESIGN_GEOMETRIC_PRESENTATION_REPRESENTATION('',(#297),
#526);
#526=(
GEOMETRIC_REPRESENTATION_CONTEXT(3)
GLOBAL_UNCERTAINTY_ASSIGNED_CONTEXT((#527))
GLOBAL_UNIT_ASSIGNED_CONTEXT((#530,#529,#528))
REPRESENTATION_CONTEXT('Part 1','TOP_LEVEL_ASSEMBLY_PART')
);
#527=UNCERTAINTY_MEASURE_WITH_UNIT(LENGTH_MEASURE(2.E-5),#530,
'DISTANCE_ACCURACY_VALUE','Maximum Tolerance applied to model');
#528=(
NAMED_UNIT(*)
SI_UNIT($,.STERADIAN.)
SOLID_ANGLE_UNIT()
);
#529=(
NAMED_UNIT(*)
PLANE_ANGLE_UNIT()
SI_UNIT($,.RADIAN.)
);
#530=(
LENGTH_UNIT()
NAMED_UNIT(*)
SI_UNIT($,.METRE.)
);
#531=PRODUCT_DEFINITION_SHAPE('','',#532);
#532=PRODUCT_DEFINITION('','',#534,#533);
#533=PRODUCT_DEFINITION_CONTEXT('',#540,'design');
#534=PRODUCT_DEFINITION_FORMATION_WITH_SPECIFIED_SOURCE('','',#536,
 .NOT_KNOWN.);
#535=PRODUCT_RELATED_PRODUCT_CATEGORY('','',(#536));
#536=PRODUCT('Part 1','Part 1','Part 1',(#538));
#537=PRODUCT_CATEGORY('','');
#538=PRODUCT_CONTEXT('',#540,'mechanical');
#539=APPLICATION_PROTOCOL_DEFINITION('international standard',
'ap242_managed_model_based_3d_engineering',2020,#540);
#540=APPLICATION_CONTEXT('managed model based 3d engineering');
ENDSEC;
END-ISO-10303-21;
