ISO-10303-21;
HEADER;
/* Generated by software containing ST-Developer
 * from STEP Tools, Inc. (www.steptools.com) 
 */
/* OPTION: using custom renumber hook */

FILE_DESCRIPTION(
/* description */ ('STEP AP242 Edition 2',
'CAx-IF Rec.Pracs.---Representation and Presentation of Product Manufa
cturing Information (PMI)---4.0---2014-10-13',
'CAx-IF Rec.Pracs.---3D Tessellated Geometry---0.4---2014-09-14','2;1',
'CAx-IF Rec.Pracs.---User Defined Attributes---1.5---2016-08-15'),
/* implementation_level */ '2;1');

FILE_NAME(
/* name */ 'Shade_plug_cord - Part 1',
/* time_stamp */ '2026-08-11T20:25:46Z',
/* author */ (''),
/* organization */ (''),
/* preprocessor_version */ 'ST-DEVELOPER v20',
/* originating_system */ 'ONSHAPE BY PTC INC, 1.219',
/* authorisation */ '  ');

FILE_SCHEMA (('AP242_MANAGED_MODEL_BASED_3D_ENGINEERING_MIM_LF { 1 0 10303 442 3 1 4 }'));
ENDSEC;

DATA;
#10=SHAPE_REPRESENTATION_RELATIONSHIP('','',#323,#11);
#11=ADVANCED_BREP_SHAPE_REPRESENTATION('',(#321),#509);
#12=CYLINDRICAL_SURFACE('',#336,0.00575);
#13=CIRCLE('',#328,0.00575);
#14=CIRCLE('',#330,0.00575);
#15=ORIENTED_EDGE('',*,*,#99,.F.);
#16=ORIENTED_EDGE('',*,*,#100,.T.);
#17=ORIENTED_EDGE('',*,*,#101,.T.);
#18=ORIENTED_EDGE('',*,*,#102,.T.);
#19=ORIENTED_EDGE('',*,*,#103,.T.);
#20=ORIENTED_EDGE('',*,*,#104,.T.);
#21=ORIENTED_EDGE('',*,*,#105,.F.);
#22=ORIENTED_EDGE('',*,*,#106,.F.);
#23=ORIENTED_EDGE('',*,*,#107,.F.);
#24=ORIENTED_EDGE('',*,*,#108,.T.);
#25=ORIENTED_EDGE('',*,*,#109,.T.);
#26=ORIENTED_EDGE('',*,*,#110,.T.);
#27=ORIENTED_EDGE('',*,*,#111,.T.);
#28=ORIENTED_EDGE('',*,*,#112,.F.);
#29=ORIENTED_EDGE('',*,*,#113,.F.);
#30=ORIENTED_EDGE('',*,*,#105,.T.);
#31=ORIENTED_EDGE('',*,*,#114,.F.);
#32=ORIENTED_EDGE('',*,*,#115,.T.);
#33=ORIENTED_EDGE('',*,*,#116,.F.);
#34=ORIENTED_EDGE('',*,*,#117,.T.);
#35=ORIENTED_EDGE('',*,*,#118,.T.);
#36=ORIENTED_EDGE('',*,*,#119,.F.);
#37=ORIENTED_EDGE('',*,*,#101,.F.);
#38=ORIENTED_EDGE('',*,*,#120,.F.);
#39=ORIENTED_EDGE('',*,*,#121,.F.);
#40=ORIENTED_EDGE('',*,*,#103,.F.);
#41=ORIENTED_EDGE('',*,*,#122,.T.);
#42=ORIENTED_EDGE('',*,*,#123,.T.);
#43=ORIENTED_EDGE('',*,*,#124,.F.);
#44=ORIENTED_EDGE('',*,*,#125,.F.);
#45=ORIENTED_EDGE('',*,*,#126,.T.);
#46=ORIENTED_EDGE('',*,*,#99,.T.);
#47=ORIENTED_EDGE('',*,*,#127,.T.);
#48=ORIENTED_EDGE('',*,*,#128,.F.);
#49=ORIENTED_EDGE('',*,*,#129,.F.);
#50=ORIENTED_EDGE('',*,*,#130,.T.);
#51=ORIENTED_EDGE('',*,*,#111,.F.);
#52=ORIENTED_EDGE('',*,*,#131,.F.);
#53=ORIENTED_EDGE('',*,*,#124,.T.);
#54=ORIENTED_EDGE('',*,*,#132,.T.);
#55=ORIENTED_EDGE('',*,*,#133,.F.);
#56=ORIENTED_EDGE('',*,*,#125,.T.);
#57=ORIENTED_EDGE('',*,*,#131,.T.);
#58=ORIENTED_EDGE('',*,*,#110,.F.);
#59=ORIENTED_EDGE('',*,*,#113,.T.);
#60=ORIENTED_EDGE('',*,*,#134,.F.);
#61=ORIENTED_EDGE('',*,*,#122,.F.);
#62=ORIENTED_EDGE('',*,*,#106,.T.);
#63=ORIENTED_EDGE('',*,*,#112,.T.);
#64=ORIENTED_EDGE('',*,*,#132,.F.);
#65=ORIENTED_EDGE('',*,*,#123,.F.);
#66=ORIENTED_EDGE('',*,*,#134,.T.);
#67=ORIENTED_EDGE('',*,*,#108,.F.);
#68=ORIENTED_EDGE('',*,*,#135,.T.);
#69=ORIENTED_EDGE('',*,*,#114,.T.);
#70=ORIENTED_EDGE('',*,*,#136,.F.);
#71=ORIENTED_EDGE('',*,*,#137,.F.);
#72=ORIENTED_EDGE('',*,*,#130,.F.);
#73=ORIENTED_EDGE('',*,*,#138,.F.);
#74=ORIENTED_EDGE('',*,*,#116,.T.);
#75=ORIENTED_EDGE('',*,*,#129,.T.);
#76=ORIENTED_EDGE('',*,*,#139,.F.);
#77=ORIENTED_EDGE('',*,*,#117,.F.);
#78=ORIENTED_EDGE('',*,*,#138,.T.);
#79=ORIENTED_EDGE('',*,*,#128,.T.);
#80=ORIENTED_EDGE('',*,*,#140,.F.);
#81=ORIENTED_EDGE('',*,*,#118,.F.);
#82=ORIENTED_EDGE('',*,*,#139,.T.);
#83=ORIENTED_EDGE('',*,*,#127,.F.);
#84=ORIENTED_EDGE('',*,*,#102,.F.);
#85=ORIENTED_EDGE('',*,*,#119,.T.);
#86=ORIENTED_EDGE('',*,*,#140,.T.);
#87=ORIENTED_EDGE('',*,*,#136,.T.);
#88=ORIENTED_EDGE('',*,*,#120,.T.);
#89=ORIENTED_EDGE('',*,*,#100,.F.);
#90=ORIENTED_EDGE('',*,*,#126,.F.);
#91=ORIENTED_EDGE('',*,*,#133,.T.);
#92=ORIENTED_EDGE('',*,*,#109,.F.);
#93=ORIENTED_EDGE('',*,*,#107,.T.);
#94=ORIENTED_EDGE('',*,*,#104,.F.);
#95=ORIENTED_EDGE('',*,*,#121,.T.);
#96=ORIENTED_EDGE('',*,*,#137,.T.);
#97=ORIENTED_EDGE('',*,*,#115,.F.);
#98=ORIENTED_EDGE('',*,*,#135,.F.);
#99=EDGE_CURVE('',#141,#142,#169,.T.);
#100=EDGE_CURVE('',#141,#143,#170,.T.);
#101=EDGE_CURVE('',#143,#144,#171,.T.);
#102=EDGE_CURVE('',#144,#142,#172,.T.);
#103=EDGE_CURVE('',#145,#146,#173,.T.);
#104=EDGE_CURVE('',#146,#147,#174,.T.);
#105=EDGE_CURVE('',#148,#147,#175,.T.);
#106=EDGE_CURVE('',#145,#148,#176,.T.);
#107=EDGE_CURVE('',#149,#147,#177,.T.);
#108=EDGE_CURVE('',#149,#150,#13,.T.);
#109=EDGE_CURVE('',#150,#151,#178,.T.);
#110=EDGE_CURVE('',#151,#152,#179,.T.);
#111=EDGE_CURVE('',#152,#153,#180,.T.);
#112=EDGE_CURVE('',#154,#153,#181,.T.);
#113=EDGE_CURVE('',#148,#154,#182,.T.);
#114=EDGE_CURVE('',#155,#156,#14,.T.);
#115=EDGE_CURVE('',#155,#157,#183,.T.);
#116=EDGE_CURVE('',#158,#157,#184,.T.);
#117=EDGE_CURVE('',#158,#159,#185,.T.);
#118=EDGE_CURVE('',#159,#160,#186,.T.);
#119=EDGE_CURVE('',#144,#160,#187,.T.);
#120=EDGE_CURVE('',#156,#143,#188,.T.);
#121=EDGE_CURVE('',#146,#161,#189,.T.);
#122=EDGE_CURVE('',#145,#162,#190,.T.);
#123=EDGE_CURVE('',#162,#163,#191,.T.);
#124=EDGE_CURVE('',#164,#163,#192,.T.);
#125=EDGE_CURVE('',#165,#164,#193,.T.);
#126=EDGE_CURVE('',#165,#141,#194,.T.);
#127=EDGE_CURVE('',#142,#166,#195,.T.);
#128=EDGE_CURVE('',#167,#166,#196,.T.);
#129=EDGE_CURVE('',#168,#167,#197,.T.);
#130=EDGE_CURVE('',#168,#161,#198,.T.);
#131=EDGE_CURVE('',#164,#152,#199,.T.);
#132=EDGE_CURVE('',#163,#153,#200,.T.);
#133=EDGE_CURVE('',#165,#151,#201,.T.);
#134=EDGE_CURVE('',#162,#154,#202,.T.);
#135=EDGE_CURVE('',#149,#155,#203,.T.);
#136=EDGE_CURVE('',#150,#156,#204,.T.);
#137=EDGE_CURVE('',#161,#157,#205,.T.);
#138=EDGE_CURVE('',#158,#168,#206,.T.);
#139=EDGE_CURVE('',#159,#167,#207,.T.);
#140=EDGE_CURVE('',#160,#166,#208,.T.);
#141=VERTEX_POINT('',#424);
#142=VERTEX_POINT('',#425);
#143=VERTEX_POINT('',#427);
#144=VERTEX_POINT('',#429);
#145=VERTEX_POINT('',#433);
#146=VERTEX_POINT('',#434);
#147=VERTEX_POINT('',#436);
#148=VERTEX_POINT('',#438);
#149=VERTEX_POINT('',#442);
#150=VERTEX_POINT('',#444);
#151=VERTEX_POINT('',#446);
#152=VERTEX_POINT('',#448);
#153=VERTEX_POINT('',#450);
#154=VERTEX_POINT('',#452);
#155=VERTEX_POINT('',#456);
#156=VERTEX_POINT('',#457);
#157=VERTEX_POINT('',#459);
#158=VERTEX_POINT('',#461);
#159=VERTEX_POINT('',#463);
#160=VERTEX_POINT('',#465);
#161=VERTEX_POINT('',#470);
#162=VERTEX_POINT('',#472);
#163=VERTEX_POINT('',#474);
#164=VERTEX_POINT('',#476);
#165=VERTEX_POINT('',#478);
#166=VERTEX_POINT('',#481);
#167=VERTEX_POINT('',#483);
#168=VERTEX_POINT('',#485);
#169=LINE('',#423,#209);
#170=LINE('',#426,#210);
#171=LINE('',#428,#211);
#172=LINE('',#430,#212);
#173=LINE('',#432,#213);
#174=LINE('',#435,#214);
#175=LINE('',#437,#215);
#176=LINE('',#439,#216);
#177=LINE('',#441,#217);
#178=LINE('',#445,#218);
#179=LINE('',#447,#219);
#180=LINE('',#449,#220);
#181=LINE('',#451,#221);
#182=LINE('',#453,#222);
#183=LINE('',#458,#223);
#184=LINE('',#460,#224);
#185=LINE('',#462,#225);
#186=LINE('',#464,#226);
#187=LINE('',#466,#227);
#188=LINE('',#467,#228);
#189=LINE('',#469,#229);
#190=LINE('',#471,#230);
#191=LINE('',#473,#231);
#192=LINE('',#475,#232);
#193=LINE('',#477,#233);
#194=LINE('',#479,#234);
#195=LINE('',#480,#235);
#196=LINE('',#482,#236);
#197=LINE('',#484,#237);
#198=LINE('',#486,#238);
#199=LINE('',#488,#239);
#200=LINE('',#489,#240);
#201=LINE('',#491,#241);
#202=LINE('',#493,#242);
#203=LINE('',#496,#243);
#204=LINE('',#497,#244);
#205=LINE('',#499,#245);
#206=LINE('',#500,#246);
#207=LINE('',#502,#247);
#208=LINE('',#504,#248);
#209=VECTOR('',#347,1.);
#210=VECTOR('',#348,1.);
#211=VECTOR('',#349,1.);
#212=VECTOR('',#350,1.);
#213=VECTOR('',#353,1.);
#214=VECTOR('',#354,1.);
#215=VECTOR('',#355,1.);
#216=VECTOR('',#356,1.);
#217=VECTOR('',#359,1.);
#218=VECTOR('',#362,1.);
#219=VECTOR('',#363,1.);
#220=VECTOR('',#364,1.);
#221=VECTOR('',#365,1.);
#222=VECTOR('',#366,1.);
#223=VECTOR('',#371,1.);
#224=VECTOR('',#372,1.);
#225=VECTOR('',#373,1.);
#226=VECTOR('',#374,1.);
#227=VECTOR('',#375,1.);
#228=VECTOR('',#376,1.);
#229=VECTOR('',#379,1.);
#230=VECTOR('',#380,1.);
#231=VECTOR('',#381,1.);
#232=VECTOR('',#382,1.);
#233=VECTOR('',#383,1.);
#234=VECTOR('',#384,1.);
#235=VECTOR('',#385,1.);
#236=VECTOR('',#386,1.);
#237=VECTOR('',#387,1.);
#238=VECTOR('',#388,1.);
#239=VECTOR('',#391,1.);
#240=VECTOR('',#392,1.);
#241=VECTOR('',#395,1.);
#242=VECTOR('',#398,1.);
#243=VECTOR('',#403,1.);
#244=VECTOR('',#404,1.);
#245=VECTOR('',#407,1.);
#246=VECTOR('',#408,1.);
#247=VECTOR('',#411,1.);
#248=VECTOR('',#414,1.);
#249=EDGE_LOOP('',(#15,#16,#17,#18));
#250=EDGE_LOOP('',(#19,#20,#21,#22));
#251=EDGE_LOOP('',(#23,#24,#25,#26,#27,#28,#29,#30));
#252=EDGE_LOOP('',(#31,#32,#33,#34,#35,#36,#37,#38));
#253=EDGE_LOOP('',(#39,#40,#41,#42,#43,#44,#45,#46,#47,#48,#49,#50));
#254=EDGE_LOOP('',(#51,#52,#53,#54));
#255=EDGE_LOOP('',(#55,#56,#57,#58));
#256=EDGE_LOOP('',(#59,#60,#61,#62));
#257=EDGE_LOOP('',(#63,#64,#65,#66));
#258=EDGE_LOOP('',(#67,#68,#69,#70));
#259=EDGE_LOOP('',(#71,#72,#73,#74));
#260=EDGE_LOOP('',(#75,#76,#77,#78));
#261=EDGE_LOOP('',(#79,#80,#81,#82));
#262=EDGE_LOOP('',(#83,#84,#85,#86));
#263=EDGE_LOOP('',(#87,#88,#89,#90,#91,#92));
#264=EDGE_LOOP('',(#93,#94,#95,#96,#97,#98));
#265=FACE_BOUND('',#249,.T.);
#266=FACE_BOUND('',#250,.T.);
#267=FACE_BOUND('',#251,.T.);
#268=FACE_BOUND('',#252,.T.);
#269=FACE_BOUND('',#253,.T.);
#270=FACE_BOUND('',#254,.T.);
#271=FACE_BOUND('',#255,.T.);
#272=FACE_BOUND('',#256,.T.);
#273=FACE_BOUND('',#257,.T.);
#274=FACE_BOUND('',#258,.T.);
#275=FACE_BOUND('',#259,.T.);
#276=FACE_BOUND('',#260,.T.);
#277=FACE_BOUND('',#261,.T.);
#278=FACE_BOUND('',#262,.T.);
#279=FACE_BOUND('',#263,.T.);
#280=FACE_BOUND('',#264,.T.);
#281=PLANE('',#325);
#282=PLANE('',#326);
#283=PLANE('',#327);
#284=PLANE('',#329);
#285=PLANE('',#331);
#286=PLANE('',#332);
#287=PLANE('',#333);
#288=PLANE('',#334);
#289=PLANE('',#335);
#290=PLANE('',#337);
#291=PLANE('',#338);
#292=PLANE('',#339);
#293=PLANE('',#340);
#294=PLANE('',#341);
#295=PLANE('',#342);
#296=ADVANCED_FACE('',(#265),#281,.T.);
#297=ADVANCED_FACE('',(#266),#282,.T.);
#298=ADVANCED_FACE('',(#267),#283,.F.);
#299=ADVANCED_FACE('',(#268),#284,.T.);
#300=ADVANCED_FACE('',(#269),#285,.F.);
#301=ADVANCED_FACE('',(#270),#286,.T.);
#302=ADVANCED_FACE('',(#271),#287,.T.);
#303=ADVANCED_FACE('',(#272),#288,.F.);
#304=ADVANCED_FACE('',(#273),#289,.F.);
#305=ADVANCED_FACE('',(#274),#12,.F.);
#306=ADVANCED_FACE('',(#275),#290,.T.);
#307=ADVANCED_FACE('',(#276),#291,.F.);
#308=ADVANCED_FACE('',(#277),#292,.F.);
#309=ADVANCED_FACE('',(#278),#293,.T.);
#310=ADVANCED_FACE('',(#279),#294,.F.);
#311=ADVANCED_FACE('',(#280),#295,.T.);
#312=CLOSED_SHELL('',(#296,#297,#298,#299,#300,#301,#302,#303,#304,#305,
#306,#307,#308,#309,#310,#311));
#313=STYLED_ITEM('',(#314),#321);
#314=PRESENTATION_STYLE_ASSIGNMENT((#315));
#315=SURFACE_STYLE_USAGE(.BOTH.,#316);
#316=SURFACE_SIDE_STYLE('',(#317));
#317=SURFACE_STYLE_FILL_AREA(#318);
#318=FILL_AREA_STYLE('',(#319));
#319=FILL_AREA_STYLE_COLOUR('',#320);
#320=COLOUR_RGB('',0.615686274509804,0.811764705882353,0.929411764705882);
#321=MANIFOLD_SOLID_BREP('Part 1',#312);
#322=SHAPE_DEFINITION_REPRESENTATION(#514,#323);
#323=SHAPE_REPRESENTATION('Part 1',(#324),#509);
#324=AXIS2_PLACEMENT_3D('',#421,#343,#344);
#325=AXIS2_PLACEMENT_3D('',#422,#345,#346);
#326=AXIS2_PLACEMENT_3D('',#431,#351,#352);
#327=AXIS2_PLACEMENT_3D('',#440,#357,#358);
#328=AXIS2_PLACEMENT_3D('',#443,#360,#361);
#329=AXIS2_PLACEMENT_3D('',#454,#367,#368);
#330=AXIS2_PLACEMENT_3D('',#455,#369,#370);
#331=AXIS2_PLACEMENT_3D('',#468,#377,#378);
#332=AXIS2_PLACEMENT_3D('',#487,#389,#390);
#333=AXIS2_PLACEMENT_3D('',#490,#393,#394);
#334=AXIS2_PLACEMENT_3D('',#492,#396,#397);
#335=AXIS2_PLACEMENT_3D('',#494,#399,#400);
#336=AXIS2_PLACEMENT_3D('',#495,#401,#402);
#337=AXIS2_PLACEMENT_3D('',#498,#405,#406);
#338=AXIS2_PLACEMENT_3D('',#501,#409,#410);
#339=AXIS2_PLACEMENT_3D('',#503,#412,#413);
#340=AXIS2_PLACEMENT_3D('',#505,#415,#416);
#341=AXIS2_PLACEMENT_3D('',#506,#417,#418);
#342=AXIS2_PLACEMENT_3D('',#507,#419,#420);
#343=DIRECTION('',(0.,0.,1.));
#344=DIRECTION('',(1.,0.,0.));
#345=DIRECTION('',(9.63735264431559E-17,-1.,0.));
#346=DIRECTION('',(1.,9.63735264431559E-17,0.));
#347=DIRECTION('',(-1.,-9.63735264431559E-17,0.));
#348=DIRECTION('',(0.,0.,1.));
#349=DIRECTION('',(-1.,-9.63735264431559E-17,0.));
#350=DIRECTION('',(0.,0.,-1.));
#351=DIRECTION('',(1.20886653378175E-16,-1.,0.));
#352=DIRECTION('',(1.,1.20886653378175E-16,0.));
#353=DIRECTION('',(-1.,-1.20886653378175E-16,0.));
#354=DIRECTION('',(0.,0.,-1.));
#355=DIRECTION('',(-1.,-1.20886653378175E-16,0.));
#356=DIRECTION('',(0.,0.,-1.));
#357=DIRECTION('',(0.,0.,1.));
#358=DIRECTION('',(1.,0.,0.));
#359=DIRECTION('',(0.,-1.,0.));
#360=DIRECTION('',(0.,0.,1.));
#361=DIRECTION('',(1.,0.,0.));
#362=DIRECTION('',(0.,-1.,0.));
#363=DIRECTION('',(-1.,-1.20886653378175E-16,0.));
#364=DIRECTION('',(7.81406971160724E-17,1.,0.));
#365=DIRECTION('',(-1.,-1.20886653378175E-16,0.));
#366=DIRECTION('',(7.81406971160724E-17,1.,0.));
#367=DIRECTION('',(0.,0.,1.));
#368=DIRECTION('',(1.,0.,0.));
#369=DIRECTION('',(0.,0.,1.));
#370=DIRECTION('',(1.,0.,0.));
#371=DIRECTION('',(0.,-1.,0.));
#372=DIRECTION('',(-1.,-9.63735264431559E-17,0.));
#373=DIRECTION('',(0.,1.,0.));
#374=DIRECTION('',(-1.,-9.63735264431559E-17,0.));
#375=DIRECTION('',(0.,1.,0.));
#376=DIRECTION('',(0.,-1.,0.));
#377=DIRECTION('',(0.,0.,1.));
#378=DIRECTION('',(1.,0.,0.));
#379=DIRECTION('',(0.,-1.,0.));
#380=DIRECTION('',(7.81406971160724E-17,1.,0.));
#381=DIRECTION('',(-1.,-1.20886653378175E-16,0.));
#382=DIRECTION('',(7.81406971160724E-17,1.,0.));
#383=DIRECTION('',(-1.,-1.20886653378175E-16,0.));
#384=DIRECTION('',(0.,-1.,0.));
#385=DIRECTION('',(0.,1.,0.));
#386=DIRECTION('',(-1.,-9.63735264431559E-17,0.));
#387=DIRECTION('',(0.,1.,0.));
#388=DIRECTION('',(-1.,-9.63735264431559E-17,0.));
#389=DIRECTION('',(-1.,7.81406971160724E-17,0.));
#390=DIRECTION('',(-7.81406971160724E-17,-1.,0.));
#391=DIRECTION('',(0.,0.,-1.));
#392=DIRECTION('',(0.,0.,-1.));
#393=DIRECTION('',(1.20886653378175E-16,-1.,0.));
#394=DIRECTION('',(1.,1.20886653378175E-16,0.));
#395=DIRECTION('',(0.,0.,-1.));
#396=DIRECTION('',(-1.,7.81406971160724E-17,0.));
#397=DIRECTION('',(-7.81406971160724E-17,-1.,0.));
#398=DIRECTION('',(0.,0.,-1.));
#399=DIRECTION('',(1.20886653378175E-16,-1.,0.));
#400=DIRECTION('',(1.,1.20886653378175E-16,0.));
#401=DIRECTION('',(0.,0.,1.));
#402=DIRECTION('',(1.,0.,0.));
#403=DIRECTION('',(0.,0.,1.));
#404=DIRECTION('',(0.,0.,1.));
#405=DIRECTION('',(9.63735264431559E-17,-1.,0.));
#406=DIRECTION('',(1.,9.63735264431559E-17,0.));
#407=DIRECTION('',(0.,0.,1.));
#408=DIRECTION('',(0.,0.,-1.));
#409=DIRECTION('',(-1.,0.,0.));
#410=DIRECTION('',(0.,0.,1.));
#411=DIRECTION('',(0.,0.,-1.));
#412=DIRECTION('',(9.63735264431559E-17,-1.,0.));
#413=DIRECTION('',(1.,9.63735264431559E-17,0.));
#414=DIRECTION('',(0.,0.,-1.));
#415=DIRECTION('',(-1.,0.,0.));
#416=DIRECTION('',(0.,0.,1.));
#417=DIRECTION('',(-1.,0.,0.));
#418=DIRECTION('',(0.,0.,1.));
#419=DIRECTION('',(-1.,0.,0.));
#420=DIRECTION('',(0.,0.,1.));
#421=CARTESIAN_POINT('',(0.,0.,0.));
#422=CARTESIAN_POINT('',(0.,-0.013,0.0045));
#423=CARTESIAN_POINT('',(0.,-0.013,0.0025));
#424=CARTESIAN_POINT('',(-0.004,-0.013,0.0025));
#425=CARTESIAN_POINT('',(-0.018,-0.013,0.0025));
#426=CARTESIAN_POINT('',(-0.004,-0.013,-0.0205));
#427=CARTESIAN_POINT('',(-0.004,-0.013,0.0045));
#428=CARTESIAN_POINT('',(0.,-0.013,0.0045));
#429=CARTESIAN_POINT('',(-0.018,-0.013,0.0045));
#430=CARTESIAN_POINT('',(-0.018,-0.013,0.0045));
#431=CARTESIAN_POINT('',(-1.7347234759768E-18,-0.0111,0.0025));
#432=CARTESIAN_POINT('',(-1.7347234759768E-18,-0.0111,0.0025));
#433=CARTESIAN_POINT('',(0.01435,-0.0111,0.0025));
#434=CARTESIAN_POINT('',(0.004,-0.0111,0.0025));
#435=CARTESIAN_POINT('',(0.004,-0.0111,0.0025));
#436=CARTESIAN_POINT('',(0.004,-0.0111,0.));
#437=CARTESIAN_POINT('',(-1.7347234759768E-18,-0.0111,0.));
#438=CARTESIAN_POINT('',(0.01435,-0.0111,0.));
#439=CARTESIAN_POINT('',(0.01435,-0.0111,0.0025));
#440=CARTESIAN_POINT('',(0.,0.,0.));
#441=CARTESIAN_POINT('',(0.004,0.,0.));
#442=CARTESIAN_POINT('',(0.004,-0.00413067791046458,0.));
#443=CARTESIAN_POINT('',(0.,3.52085954754864E-19,0.));
#444=CARTESIAN_POINT('',(-0.004,-0.00413067791046458,0.));
#445=CARTESIAN_POINT('',(-0.004,0.,0.));
#446=CARTESIAN_POINT('',(-0.004,-0.0111,0.));
#447=CARTESIAN_POINT('',(-1.7347234759768E-18,-0.0111,0.));
#448=CARTESIAN_POINT('',(-0.01435,-0.0111,0.));
#449=CARTESIAN_POINT('',(-0.01435,-1.7347234759768E-18,0.));
#450=CARTESIAN_POINT('',(-0.01435,0.0111,0.));
#451=CARTESIAN_POINT('',(0.,0.0111,0.));
#452=CARTESIAN_POINT('',(0.01435,0.0111,0.));
#453=CARTESIAN_POINT('',(0.01435,8.67361737988404E-19,0.));
#454=CARTESIAN_POINT('',(0.,0.,0.0045));
#455=CARTESIAN_POINT('',(0.,3.52085954754864E-19,0.0045));
#456=CARTESIAN_POINT('',(0.004,-0.00413067791046458,0.0045));
#457=CARTESIAN_POINT('',(-0.004,-0.00413067791046458,0.0045));
#458=CARTESIAN_POINT('',(0.004,-0.009375,0.0045));
#459=CARTESIAN_POINT('',(0.004,-0.013,0.0045));
#460=CARTESIAN_POINT('',(0.,-0.013,0.0045));
#461=CARTESIAN_POINT('',(0.018,-0.013,0.0045));
#462=CARTESIAN_POINT('',(0.018,1.7347234759768E-18,0.0045));
#463=CARTESIAN_POINT('',(0.018,0.013,0.0045));
#464=CARTESIAN_POINT('',(0.,0.013,0.0045));
#465=CARTESIAN_POINT('',(-0.018,0.013,0.0045));
#466=CARTESIAN_POINT('',(-0.018,-1.7347234759768E-18,0.0045));
#467=CARTESIAN_POINT('',(-0.004,-0.009375,0.0045));
#468=CARTESIAN_POINT('',(0.,0.,0.0025));
#469=CARTESIAN_POINT('',(0.004,0.,0.0025));
#470=CARTESIAN_POINT('',(0.004,-0.013,0.0025));
#471=CARTESIAN_POINT('',(0.01435,8.67361737988404E-19,0.0025));
#472=CARTESIAN_POINT('',(0.01435,0.0111,0.0025));
#473=CARTESIAN_POINT('',(0.,0.0111,0.0025));
#474=CARTESIAN_POINT('',(-0.01435,0.0111,0.0025));
#475=CARTESIAN_POINT('',(-0.01435,-1.7347234759768E-18,0.0025));
#476=CARTESIAN_POINT('',(-0.01435,-0.0111,0.0025));
#477=CARTESIAN_POINT('',(-1.7347234759768E-18,-0.0111,0.0025));
#478=CARTESIAN_POINT('',(-0.004,-0.0111,0.0025));
#479=CARTESIAN_POINT('',(-0.004,0.,0.0025));
#480=CARTESIAN_POINT('',(-0.018,-1.7347234759768E-18,0.0025));
#481=CARTESIAN_POINT('',(-0.018,0.013,0.0025));
#482=CARTESIAN_POINT('',(0.,0.013,0.0025));
#483=CARTESIAN_POINT('',(0.018,0.013,0.0025));
#484=CARTESIAN_POINT('',(0.018,1.7347234759768E-18,0.0025));
#485=CARTESIAN_POINT('',(0.018,-0.013,0.0025));
#486=CARTESIAN_POINT('',(0.,-0.013,0.0025));
#487=CARTESIAN_POINT('',(-0.01435,-1.7347234759768E-18,0.0025));
#488=CARTESIAN_POINT('',(-0.01435,-0.0111,0.0025));
#489=CARTESIAN_POINT('',(-0.01435,0.0111,0.0025));
#490=CARTESIAN_POINT('',(-1.7347234759768E-18,-0.0111,0.0025));
#491=CARTESIAN_POINT('',(-0.004,-0.0111,0.0025));
#492=CARTESIAN_POINT('',(0.01435,8.67361737988404E-19,0.0025));
#493=CARTESIAN_POINT('',(0.01435,0.0111,0.0025));
#494=CARTESIAN_POINT('',(0.,0.0111,0.0025));
#495=CARTESIAN_POINT('',(0.,3.52085954754864E-19,-0.0225));
#496=CARTESIAN_POINT('',(0.004,-0.00413067791046458,-0.0205));
#497=CARTESIAN_POINT('',(-0.004,-0.00413067791046458,-0.0205));
#498=CARTESIAN_POINT('',(0.,-0.013,0.0045));
#499=CARTESIAN_POINT('',(0.004,-0.013,-0.0205));
#500=CARTESIAN_POINT('',(0.018,-0.013,0.0045));
#501=CARTESIAN_POINT('',(0.018,1.7347234759768E-18,0.0045));
#502=CARTESIAN_POINT('',(0.018,0.013,0.0045));
#503=CARTESIAN_POINT('',(0.,0.013,0.0045));
#504=CARTESIAN_POINT('',(-0.018,0.013,0.0045));
#505=CARTESIAN_POINT('',(-0.018,-1.7347234759768E-18,0.0045));
#506=CARTESIAN_POINT('',(-0.004,-0.009375,-0.0205));
#507=CARTESIAN_POINT('',(0.004,-0.009375,-0.0205));
#508=MECHANICAL_DESIGN_GEOMETRIC_PRESENTATION_REPRESENTATION('',(#313),
#509);
#509=(
GEOMETRIC_REPRESENTATION_CONTEXT(3)
GLOBAL_UNCERTAINTY_ASSIGNED_CONTEXT((#510))
GLOBAL_UNIT_ASSIGNED_CONTEXT((#513,#512,#511))
REPRESENTATION_CONTEXT('Part 1','TOP_LEVEL_ASSEMBLY_PART')
);
#510=UNCERTAINTY_MEASURE_WITH_UNIT(LENGTH_MEASURE(1.E-8),#513,
'DISTANCE_ACCURACY_VALUE','Maximum Tolerance applied to model');
#511=(
NAMED_UNIT(*)
SI_UNIT($,.STERADIAN.)
SOLID_ANGLE_UNIT()
);
#512=(
NAMED_UNIT(*)
PLANE_ANGLE_UNIT()
SI_UNIT($,.RADIAN.)
);
#513=(
LENGTH_UNIT()
NAMED_UNIT(*)
SI_UNIT($,.METRE.)
);
#514=PRODUCT_DEFINITION_SHAPE('','',#515);
#515=PRODUCT_DEFINITION('','',#517,#516);
#516=PRODUCT_DEFINITION_CONTEXT('',#523,'design');
#517=PRODUCT_DEFINITION_FORMATION_WITH_SPECIFIED_SOURCE('','',#519,
 .NOT_KNOWN.);
#518=PRODUCT_RELATED_PRODUCT_CATEGORY('','',(#519));
#519=PRODUCT('Part 1','Part 1','Part 1',(#521));
#520=PRODUCT_CATEGORY('','');
#521=PRODUCT_CONTEXT('',#523,'mechanical');
#522=APPLICATION_PROTOCOL_DEFINITION('international standard',
'ap242_managed_model_based_3d_engineering',2020,#523);
#523=APPLICATION_CONTEXT('managed model based 3d engineering');
ENDSEC;
END-ISO-10303-21;
