ISO-10303-21;
HEADER;
/* Generated by software containing ST-Developer
 * from STEP Tools, Inc. (www.steptools.com) 
 */
/* OPTION: using custom renumber hook */

FILE_DESCRIPTION(
/* description */ ('STEP AP242 Edition 2',
'CAx-IF Rec.Pracs.---Representation and Presentation of Product Manufa
cturing Information (PMI)---4.0---2014-10-13',
'CAx-IF Rec.Pracs.---3D Tessellated Geometry---0.4---2014-09-14','2;1',
'CAx-IF Rec.Pracs.---User Defined Attributes---1.5---2016-08-15'),
/* implementation_level */ '2;1');

FILE_NAME(
/* name */ 'Shade - Part 1',
/* time_stamp */ '2026-08-11T20:25:58Z',
/* author */ (''),
/* organization */ (''),
/* preprocessor_version */ 'ST-DEVELOPER v20',
/* originating_system */ 'ONSHAPE BY PTC INC, 1.219',
/* authorisation */ '  ');

FILE_SCHEMA (('AP242_MANAGED_MODEL_BASED_3D_ENGINEERING_MIM_LF { 1 0 10303 442 3 1 4 }'));
ENDSEC;

DATA;
#10=SHAPE_REPRESENTATION_RELATIONSHIP('','',#157,#11);
#11=ADVANCED_BREP_SHAPE_REPRESENTATION('',(#155),#251);
#12=LINE('',#222,#24);
#13=LINE('',#225,#25);
#14=LINE('',#227,#26);
#15=LINE('',#229,#27);
#16=LINE('',#234,#28);
#17=LINE('',#237,#29);
#18=LINE('',#239,#30);
#19=LINE('',#241,#31);
#20=LINE('',#243,#32);
#21=LINE('',#244,#33);
#22=LINE('',#246,#34);
#23=LINE('',#248,#35);
#24=VECTOR('',#186,1.);
#25=VECTOR('',#187,1.);
#26=VECTOR('',#188,1.);
#27=VECTOR('',#189,1.);
#28=VECTOR('',#196,1.);
#29=VECTOR('',#197,1.);
#30=VECTOR('',#198,1.);
#31=VECTOR('',#199,1.);
#32=VECTOR('',#202,1.);
#33=VECTOR('',#203,1.);
#34=VECTOR('',#206,1.);
#35=VECTOR('',#209,1.);
#36=PLANE('',#162);
#37=PLANE('',#164);
#38=PLANE('',#167);
#39=PLANE('',#168);
#40=PLANE('',#169);
#41=PLANE('',#170);
#42=PLANE('',#171);
#43=ORIENTED_EDGE('',*,*,#75,.F.);
#44=ORIENTED_EDGE('',*,*,#76,.T.);
#45=ORIENTED_EDGE('',*,*,#77,.F.);
#46=ORIENTED_EDGE('',*,*,#75,.T.);
#47=ORIENTED_EDGE('',*,*,#78,.F.);
#48=ORIENTED_EDGE('',*,*,#79,.F.);
#49=ORIENTED_EDGE('',*,*,#80,.F.);
#50=ORIENTED_EDGE('',*,*,#81,.F.);
#51=ORIENTED_EDGE('',*,*,#76,.F.);
#52=ORIENTED_EDGE('',*,*,#77,.T.);
#53=ORIENTED_EDGE('',*,*,#82,.F.);
#54=ORIENTED_EDGE('',*,*,#83,.F.);
#55=ORIENTED_EDGE('',*,*,#84,.F.);
#56=ORIENTED_EDGE('',*,*,#85,.F.);
#57=ORIENTED_EDGE('',*,*,#86,.F.);
#58=ORIENTED_EDGE('',*,*,#82,.T.);
#59=ORIENTED_EDGE('',*,*,#83,.T.);
#60=ORIENTED_EDGE('',*,*,#87,.T.);
#61=ORIENTED_EDGE('',*,*,#79,.T.);
#62=ORIENTED_EDGE('',*,*,#88,.F.);
#63=ORIENTED_EDGE('',*,*,#84,.T.);
#64=ORIENTED_EDGE('',*,*,#88,.T.);
#65=ORIENTED_EDGE('',*,*,#78,.T.);
#66=ORIENTED_EDGE('',*,*,#89,.F.);
#67=ORIENTED_EDGE('',*,*,#85,.T.);
#68=ORIENTED_EDGE('',*,*,#89,.T.);
#69=ORIENTED_EDGE('',*,*,#81,.T.);
#70=ORIENTED_EDGE('',*,*,#90,.F.);
#71=ORIENTED_EDGE('',*,*,#86,.T.);
#72=ORIENTED_EDGE('',*,*,#90,.T.);
#73=ORIENTED_EDGE('',*,*,#80,.T.);
#74=ORIENTED_EDGE('',*,*,#87,.F.);
#75=EDGE_CURVE('',#91,#91,#103,.T.);
#76=EDGE_CURVE('',#92,#92,#104,.T.);
#77=EDGE_CURVE('',#93,#93,#105,.T.);
#78=EDGE_CURVE('',#94,#95,#12,.T.);
#79=EDGE_CURVE('',#96,#94,#13,.T.);
#80=EDGE_CURVE('',#97,#96,#14,.T.);
#81=EDGE_CURVE('',#95,#97,#15,.T.);
#82=EDGE_CURVE('',#98,#98,#106,.T.);
#83=EDGE_CURVE('',#99,#100,#16,.T.);
#84=EDGE_CURVE('',#101,#99,#17,.T.);
#85=EDGE_CURVE('',#102,#101,#18,.T.);
#86=EDGE_CURVE('',#100,#102,#19,.T.);
#87=EDGE_CURVE('',#100,#96,#20,.T.);
#88=EDGE_CURVE('',#99,#94,#21,.T.);
#89=EDGE_CURVE('',#101,#95,#22,.T.);
#90=EDGE_CURVE('',#102,#97,#23,.T.);
#91=VERTEX_POINT('',#215);
#92=VERTEX_POINT('',#217);
#93=VERTEX_POINT('',#220);
#94=VERTEX_POINT('',#223);
#95=VERTEX_POINT('',#224);
#96=VERTEX_POINT('',#226);
#97=VERTEX_POINT('',#228);
#98=VERTEX_POINT('',#232);
#99=VERTEX_POINT('',#235);
#100=VERTEX_POINT('',#236);
#101=VERTEX_POINT('',#238);
#102=VERTEX_POINT('',#240);
#103=CIRCLE('',#160,0.045);
#104=CIRCLE('',#161,0.045);
#105=CIRCLE('',#163,0.0434);
#106=CIRCLE('',#166,0.0434);
#107=EDGE_LOOP('',(#43));
#108=EDGE_LOOP('',(#44));
#109=EDGE_LOOP('',(#45));
#110=EDGE_LOOP('',(#46));
#111=EDGE_LOOP('',(#47,#48,#49,#50));
#112=EDGE_LOOP('',(#51));
#113=EDGE_LOOP('',(#52));
#114=EDGE_LOOP('',(#53));
#115=EDGE_LOOP('',(#54,#55,#56,#57));
#116=EDGE_LOOP('',(#58));
#117=EDGE_LOOP('',(#59,#60,#61,#62));
#118=EDGE_LOOP('',(#63,#64,#65,#66));
#119=EDGE_LOOP('',(#67,#68,#69,#70));
#120=EDGE_LOOP('',(#71,#72,#73,#74));
#121=FACE_BOUND('',#107,.T.);
#122=FACE_BOUND('',#108,.T.);
#123=FACE_BOUND('',#109,.T.);
#124=FACE_BOUND('',#110,.T.);
#125=FACE_BOUND('',#111,.T.);
#126=FACE_BOUND('',#112,.T.);
#127=FACE_BOUND('',#113,.T.);
#128=FACE_BOUND('',#114,.T.);
#129=FACE_BOUND('',#115,.T.);
#130=FACE_BOUND('',#116,.T.);
#131=FACE_BOUND('',#117,.T.);
#132=FACE_BOUND('',#118,.T.);
#133=FACE_BOUND('',#119,.T.);
#134=FACE_BOUND('',#120,.T.);
#135=CYLINDRICAL_SURFACE('',#159,0.045);
#136=CYLINDRICAL_SURFACE('',#165,0.0434);
#137=ADVANCED_FACE('',(#121,#122),#135,.T.);
#138=ADVANCED_FACE('',(#123,#124),#36,.T.);
#139=ADVANCED_FACE('',(#125,#126),#37,.F.);
#140=ADVANCED_FACE('',(#127,#128),#136,.F.);
#141=ADVANCED_FACE('',(#129,#130),#38,.T.);
#142=ADVANCED_FACE('',(#131),#39,.F.);
#143=ADVANCED_FACE('',(#132),#40,.F.);
#144=ADVANCED_FACE('',(#133),#41,.F.);
#145=ADVANCED_FACE('',(#134),#42,.F.);
#146=CLOSED_SHELL('',(#137,#138,#139,#140,#141,#142,#143,#144,#145));
#147=STYLED_ITEM('',(#148),#155);
#148=PRESENTATION_STYLE_ASSIGNMENT((#149));
#149=SURFACE_STYLE_USAGE(.BOTH.,#150);
#150=SURFACE_SIDE_STYLE('',(#151));
#151=SURFACE_STYLE_FILL_AREA(#152);
#152=FILL_AREA_STYLE('',(#153));
#153=FILL_AREA_STYLE_COLOUR('',#154);
#154=COLOUR_RGB('',0.917647058823529,0.917647058823529,0.917647058823529);
#155=MANIFOLD_SOLID_BREP('Part 1',#146);
#156=SHAPE_DEFINITION_REPRESENTATION(#256,#157);
#157=SHAPE_REPRESENTATION('Part 1',(#158),#251);
#158=AXIS2_PLACEMENT_3D('',#212,#172,#173);
#159=AXIS2_PLACEMENT_3D('',#213,#174,#175);
#160=AXIS2_PLACEMENT_3D('',#214,#176,#177);
#161=AXIS2_PLACEMENT_3D('',#216,#178,#179);
#162=AXIS2_PLACEMENT_3D('',#218,#180,#181);
#163=AXIS2_PLACEMENT_3D('',#219,#182,#183);
#164=AXIS2_PLACEMENT_3D('',#221,#184,#185);
#165=AXIS2_PLACEMENT_3D('',#230,#190,#191);
#166=AXIS2_PLACEMENT_3D('',#231,#192,#193);
#167=AXIS2_PLACEMENT_3D('',#233,#194,#195);
#168=AXIS2_PLACEMENT_3D('',#242,#200,#201);
#169=AXIS2_PLACEMENT_3D('',#245,#204,#205);
#170=AXIS2_PLACEMENT_3D('',#247,#207,#208);
#171=AXIS2_PLACEMENT_3D('',#249,#210,#211);
#172=DIRECTION('',(0.,0.,1.));
#173=DIRECTION('',(1.,0.,0.));
#174=DIRECTION('',(0.,0.,-1.));
#175=DIRECTION('',(-1.,0.,0.));
#176=DIRECTION('',(0.,0.,1.));
#177=DIRECTION('',(1.,0.,0.));
#178=DIRECTION('',(0.,0.,1.));
#179=DIRECTION('',(1.,0.,0.));
#180=DIRECTION('',(0.,0.,1.));
#181=DIRECTION('',(1.,0.,0.));
#182=DIRECTION('',(0.,0.,1.));
#183=DIRECTION('',(1.,0.,0.));
#184=DIRECTION('',(0.,0.,1.));
#185=DIRECTION('',(1.,0.,0.));
#186=DIRECTION('',(1.,-1.17608371252665E-16,0.));
#187=DIRECTION('',(0.,1.,0.));
#188=DIRECTION('',(-1.,1.17608371252665E-16,0.));
#189=DIRECTION('',(0.,-1.,0.));
#190=DIRECTION('',(0.,0.,-1.));
#191=DIRECTION('',(-1.,0.,0.));
#192=DIRECTION('',(0.,0.,1.));
#193=DIRECTION('',(1.,0.,0.));
#194=DIRECTION('',(0.,0.,1.));
#195=DIRECTION('',(1.,0.,0.));
#196=DIRECTION('',(0.,-1.,0.));
#197=DIRECTION('',(-1.,1.17608371252665E-16,0.));
#198=DIRECTION('',(0.,1.,0.));
#199=DIRECTION('',(1.,-1.17608371252665E-16,0.));
#200=DIRECTION('',(-1.,0.,0.));
#201=DIRECTION('',(0.,0.,1.));
#202=DIRECTION('',(0.,0.,-1.));
#203=DIRECTION('',(0.,0.,-1.));
#204=DIRECTION('',(1.17608371252665E-16,1.,0.));
#205=DIRECTION('',(-1.,1.17608371252665E-16,0.));
#206=DIRECTION('',(0.,0.,-1.));
#207=DIRECTION('',(1.,0.,0.));
#208=DIRECTION('',(0.,0.,-1.));
#209=DIRECTION('',(0.,0.,-1.));
#210=DIRECTION('',(-1.17608371252665E-16,-1.,0.));
#211=DIRECTION('',(1.,-1.17608371252665E-16,0.));
#212=CARTESIAN_POINT('',(0.,0.,0.));
#213=CARTESIAN_POINT('',(0.,2.75545529808154E-18,0.19));
#214=CARTESIAN_POINT('',(0.,2.75545529808154E-18,0.19));
#215=CARTESIAN_POINT('',(0.045,2.75545529808154E-18,0.19));
#216=CARTESIAN_POINT('',(0.,2.75545529808154E-18,0.));
#217=CARTESIAN_POINT('',(0.045,2.75545529808154E-18,0.));
#218=CARTESIAN_POINT('',(0.,0.,0.19));
#219=CARTESIAN_POINT('',(0.,2.75545529808154E-18,0.19));
#220=CARTESIAN_POINT('',(0.0434,2.75545529808154E-18,0.19));
#221=CARTESIAN_POINT('',(0.,0.,0.));
#222=CARTESIAN_POINT('',(0.,0.0115,0.));
#223=CARTESIAN_POINT('',(-0.01475,0.0115,0.));
#224=CARTESIAN_POINT('',(0.01475,0.0115,0.));
#225=CARTESIAN_POINT('',(-0.01475,1.7347234759768E-18,0.));
#226=CARTESIAN_POINT('',(-0.01475,-0.0115,0.));
#227=CARTESIAN_POINT('',(0.,-0.0115,0.));
#228=CARTESIAN_POINT('',(0.01475,-0.0115,0.));
#229=CARTESIAN_POINT('',(0.01475,-1.7347234759768E-18,0.));
#230=CARTESIAN_POINT('',(0.,2.75545529808154E-18,0.19));
#231=CARTESIAN_POINT('',(0.,2.75545529808154E-18,0.0016));
#232=CARTESIAN_POINT('',(0.0434,2.75545529808154E-18,0.0016));
#233=CARTESIAN_POINT('',(0.,0.,0.0016));
#234=CARTESIAN_POINT('',(-0.01475,0.,0.0016));
#235=CARTESIAN_POINT('',(-0.01475,0.0115,0.0016));
#236=CARTESIAN_POINT('',(-0.01475,-0.0115,0.0016));
#237=CARTESIAN_POINT('',(1.35249626940565E-18,0.0115,0.0016));
#238=CARTESIAN_POINT('',(0.01475,0.0115,0.0016));
#239=CARTESIAN_POINT('',(0.01475,0.,0.0016));
#240=CARTESIAN_POINT('',(0.01475,-0.0115,0.0016));
#241=CARTESIAN_POINT('',(-1.35249626940565E-18,-0.0115,0.0016));
#242=CARTESIAN_POINT('',(-0.01475,1.7347234759768E-18,0.025));
#243=CARTESIAN_POINT('',(-0.01475,-0.0115,0.025));
#244=CARTESIAN_POINT('',(-0.01475,0.0115,0.025));
#245=CARTESIAN_POINT('',(0.,0.0115,0.025));
#246=CARTESIAN_POINT('',(0.01475,0.0115,0.025));
#247=CARTESIAN_POINT('',(0.01475,-1.7347234759768E-18,0.025));
#248=CARTESIAN_POINT('',(0.01475,-0.0115,0.025));
#249=CARTESIAN_POINT('',(0.,-0.0115,0.025));
#250=MECHANICAL_DESIGN_GEOMETRIC_PRESENTATION_REPRESENTATION('',(#147),
#251);
#251=(
GEOMETRIC_REPRESENTATION_CONTEXT(3)
GLOBAL_UNCERTAINTY_ASSIGNED_CONTEXT((#252))
GLOBAL_UNIT_ASSIGNED_CONTEXT((#255,#254,#253))
REPRESENTATION_CONTEXT('Part 1','TOP_LEVEL_ASSEMBLY_PART')
);
#252=UNCERTAINTY_MEASURE_WITH_UNIT(LENGTH_MEASURE(1.E-8),#255,
'DISTANCE_ACCURACY_VALUE','Maximum Tolerance applied to model');
#253=(
NAMED_UNIT(*)
SI_UNIT($,.STERADIAN.)
SOLID_ANGLE_UNIT()
);
#254=(
NAMED_UNIT(*)
PLANE_ANGLE_UNIT()
SI_UNIT($,.RADIAN.)
);
#255=(
LENGTH_UNIT()
NAMED_UNIT(*)
SI_UNIT($,.METRE.)
);
#256=PRODUCT_DEFINITION_SHAPE('','',#257);
#257=PRODUCT_DEFINITION('','',#259,#258);
#258=PRODUCT_DEFINITION_CONTEXT('',#265,'design');
#259=PRODUCT_DEFINITION_FORMATION_WITH_SPECIFIED_SOURCE('','',#261,
 .NOT_KNOWN.);
#260=PRODUCT_RELATED_PRODUCT_CATEGORY('','',(#261));
#261=PRODUCT('Part 1','Part 1','Part 1',(#263));
#262=PRODUCT_CATEGORY('','');
#263=PRODUCT_CONTEXT('',#265,'mechanical');
#264=APPLICATION_PROTOCOL_DEFINITION('international standard',
'ap242_managed_model_based_3d_engineering',2020,#265);
#265=APPLICATION_CONTEXT('managed model based 3d engineering');
ENDSEC;
END-ISO-10303-21;
