ISO-10303-21;
HEADER;
/* Generated by software containing ST-Developer
 * from STEP Tools, Inc. (www.steptools.com) 
 */
/* OPTION: using custom renumber hook */

FILE_DESCRIPTION(
/* description */ ('STEP AP242 Edition 2',
'CAx-IF Rec.Pracs.---Representation and Presentation of Product Manufa
cturing Information (PMI)---4.0---2014-10-13',
'CAx-IF Rec.Pracs.---3D Tessellated Geometry---0.4---2014-09-14','2;1',
'CAx-IF Rec.Pracs.---User Defined Attributes---1.5---2016-08-15'),
/* implementation_level */ '2;1');

FILE_NAME(
/* name */ 'Vert_joint - Part 1',
/* time_stamp */ '2026-08-11T20:25:04Z',
/* author */ (''),
/* organization */ (''),
/* preprocessor_version */ 'ST-DEVELOPER v20',
/* originating_system */ 'ONSHAPE BY PTC INC, 1.219',
/* authorisation */ '  ');

FILE_SCHEMA (('AP242_MANAGED_MODEL_BASED_3D_ENGINEERING_MIM_LF { 1 0 10303 442 3 1 4 }'));
ENDSEC;

DATA;
#10=SHAPE_REPRESENTATION_RELATIONSHIP('','',#334,#11);
#11=ADVANCED_BREP_SHAPE_REPRESENTATION('',(#332),#552);
#12=PLANE('',#339);
#13=PLANE('',#348);
#14=PLANE('',#349);
#15=PLANE('',#350);
#16=PLANE('',#351);
#17=PLANE('',#352);
#18=PLANE('',#353);
#19=PLANE('',#354);
#20=PLANE('',#355);
#21=PLANE('',#357);
#22=PLANE('',#358);
#23=PLANE('',#361);
#24=PLANE('',#364);
#25=CIRCLE('',#337,0.0052);
#26=CIRCLE('',#338,0.0052);
#27=CIRCLE('',#340,0.009);
#28=CIRCLE('',#341,0.015);
#29=CIRCLE('',#343,0.015);
#30=CIRCLE('',#344,0.015);
#31=CIRCLE('',#345,0.015);
#32=CIRCLE('',#346,0.015);
#33=CIRCLE('',#347,0.015);
#34=CIRCLE('',#356,0.0052);
#35=CIRCLE('',#360,0.0052);
#36=CIRCLE('',#363,0.009);
#37=ORIENTED_EDGE('',*,*,#127,.F.);
#38=ORIENTED_EDGE('',*,*,#128,.T.);
#39=ORIENTED_EDGE('',*,*,#129,.T.);
#40=ORIENTED_EDGE('',*,*,#130,.T.);
#41=ORIENTED_EDGE('',*,*,#131,.F.);
#42=ORIENTED_EDGE('',*,*,#132,.T.);
#43=ORIENTED_EDGE('',*,*,#133,.F.);
#44=ORIENTED_EDGE('',*,*,#134,.F.);
#45=ORIENTED_EDGE('',*,*,#133,.T.);
#46=ORIENTED_EDGE('',*,*,#135,.T.);
#47=ORIENTED_EDGE('',*,*,#136,.F.);
#48=ORIENTED_EDGE('',*,*,#137,.F.);
#49=ORIENTED_EDGE('',*,*,#138,.T.);
#50=ORIENTED_EDGE('',*,*,#139,.F.);
#51=ORIENTED_EDGE('',*,*,#140,.F.);
#52=ORIENTED_EDGE('',*,*,#141,.T.);
#53=ORIENTED_EDGE('',*,*,#142,.T.);
#54=ORIENTED_EDGE('',*,*,#143,.T.);
#55=ORIENTED_EDGE('',*,*,#144,.F.);
#56=ORIENTED_EDGE('',*,*,#145,.F.);
#57=ORIENTED_EDGE('',*,*,#146,.F.);
#58=ORIENTED_EDGE('',*,*,#147,.F.);
#59=ORIENTED_EDGE('',*,*,#148,.F.);
#60=ORIENTED_EDGE('',*,*,#149,.F.);
#61=ORIENTED_EDGE('',*,*,#136,.T.);
#62=ORIENTED_EDGE('',*,*,#150,.F.);
#63=ORIENTED_EDGE('',*,*,#130,.F.);
#64=ORIENTED_EDGE('',*,*,#151,.T.);
#65=ORIENTED_EDGE('',*,*,#144,.T.);
#66=ORIENTED_EDGE('',*,*,#152,.F.);
#67=ORIENTED_EDGE('',*,*,#134,.T.);
#68=ORIENTED_EDGE('',*,*,#145,.T.);
#69=ORIENTED_EDGE('',*,*,#151,.F.);
#70=ORIENTED_EDGE('',*,*,#129,.F.);
#71=ORIENTED_EDGE('',*,*,#153,.T.);
#72=ORIENTED_EDGE('',*,*,#132,.F.);
#73=ORIENTED_EDGE('',*,*,#154,.T.);
#74=ORIENTED_EDGE('',*,*,#155,.F.);
#75=ORIENTED_EDGE('',*,*,#127,.T.);
#76=ORIENTED_EDGE('',*,*,#150,.T.);
#77=ORIENTED_EDGE('',*,*,#135,.F.);
#78=ORIENTED_EDGE('',*,*,#149,.T.);
#79=ORIENTED_EDGE('',*,*,#156,.F.);
#80=ORIENTED_EDGE('',*,*,#157,.F.);
#81=ORIENTED_EDGE('',*,*,#137,.T.);
#82=ORIENTED_EDGE('',*,*,#148,.T.);
#83=ORIENTED_EDGE('',*,*,#158,.F.);
#84=ORIENTED_EDGE('',*,*,#159,.F.);
#85=ORIENTED_EDGE('',*,*,#156,.T.);
#86=ORIENTED_EDGE('',*,*,#147,.T.);
#87=ORIENTED_EDGE('',*,*,#160,.F.);
#88=ORIENTED_EDGE('',*,*,#161,.F.);
#89=ORIENTED_EDGE('',*,*,#158,.T.);
#90=ORIENTED_EDGE('',*,*,#146,.T.);
#91=ORIENTED_EDGE('',*,*,#143,.F.);
#92=ORIENTED_EDGE('',*,*,#162,.F.);
#93=ORIENTED_EDGE('',*,*,#160,.T.);
#94=ORIENTED_EDGE('',*,*,#138,.F.);
#95=ORIENTED_EDGE('',*,*,#157,.T.);
#96=ORIENTED_EDGE('',*,*,#159,.T.);
#97=ORIENTED_EDGE('',*,*,#161,.T.);
#98=ORIENTED_EDGE('',*,*,#162,.T.);
#99=ORIENTED_EDGE('',*,*,#142,.F.);
#100=ORIENTED_EDGE('',*,*,#163,.F.);
#101=ORIENTED_EDGE('',*,*,#164,.T.);
#102=ORIENTED_EDGE('',*,*,#165,.T.);
#103=ORIENTED_EDGE('',*,*,#163,.T.);
#104=ORIENTED_EDGE('',*,*,#141,.F.);
#105=ORIENTED_EDGE('',*,*,#166,.F.);
#106=ORIENTED_EDGE('',*,*,#167,.T.);
#107=ORIENTED_EDGE('',*,*,#165,.F.);
#108=ORIENTED_EDGE('',*,*,#168,.F.);
#109=ORIENTED_EDGE('',*,*,#169,.T.);
#110=ORIENTED_EDGE('',*,*,#139,.T.);
#111=ORIENTED_EDGE('',*,*,#164,.F.);
#112=ORIENTED_EDGE('',*,*,#167,.F.);
#113=ORIENTED_EDGE('',*,*,#170,.T.);
#114=ORIENTED_EDGE('',*,*,#168,.T.);
#115=ORIENTED_EDGE('',*,*,#166,.T.);
#116=ORIENTED_EDGE('',*,*,#140,.T.);
#117=ORIENTED_EDGE('',*,*,#169,.F.);
#118=ORIENTED_EDGE('',*,*,#170,.F.);
#119=ORIENTED_EDGE('',*,*,#152,.T.);
#120=ORIENTED_EDGE('',*,*,#171,.F.);
#121=ORIENTED_EDGE('',*,*,#154,.F.);
#122=ORIENTED_EDGE('',*,*,#131,.T.);
#123=ORIENTED_EDGE('',*,*,#128,.F.);
#124=ORIENTED_EDGE('',*,*,#155,.T.);
#125=ORIENTED_EDGE('',*,*,#171,.T.);
#126=ORIENTED_EDGE('',*,*,#153,.F.);
#127=EDGE_CURVE('',#172,#173,#202,.T.);
#128=EDGE_CURVE('',#172,#174,#25,.T.);
#129=EDGE_CURVE('',#174,#175,#203,.T.);
#130=EDGE_CURVE('',#175,#173,#26,.T.);
#131=EDGE_CURVE('',#176,#177,#27,.T.);
#132=EDGE_CURVE('',#176,#178,#204,.T.);
#133=EDGE_CURVE('',#179,#178,#28,.T.);
#134=EDGE_CURVE('',#177,#179,#205,.T.);
#135=EDGE_CURVE('',#178,#180,#206,.T.);
#136=EDGE_CURVE('',#181,#180,#29,.T.);
#137=EDGE_CURVE('',#182,#181,#207,.T.);
#138=EDGE_CURVE('',#182,#183,#30,.T.);
#139=EDGE_CURVE('',#184,#183,#208,.T.);
#140=EDGE_CURVE('',#185,#184,#31,.T.);
#141=EDGE_CURVE('',#185,#186,#209,.T.);
#142=EDGE_CURVE('',#186,#187,#32,.T.);
#143=EDGE_CURVE('',#187,#188,#210,.T.);
#144=EDGE_CURVE('',#189,#188,#33,.T.);
#145=EDGE_CURVE('',#179,#189,#211,.T.);
#146=EDGE_CURVE('',#190,#188,#212,.T.);
#147=EDGE_CURVE('',#191,#190,#213,.T.);
#148=EDGE_CURVE('',#192,#191,#214,.T.);
#149=EDGE_CURVE('',#181,#192,#215,.T.);
#150=EDGE_CURVE('',#173,#180,#216,.T.);
#151=EDGE_CURVE('',#175,#189,#217,.T.);
#152=EDGE_CURVE('',#177,#193,#218,.F.);
#153=EDGE_CURVE('',#174,#193,#219,.T.);
#154=EDGE_CURVE('',#176,#194,#220,.F.);
#155=EDGE_CURVE('',#172,#194,#221,.T.);
#156=EDGE_CURVE('',#195,#192,#222,.T.);
#157=EDGE_CURVE('',#182,#195,#223,.T.);
#158=EDGE_CURVE('',#196,#191,#224,.T.);
#159=EDGE_CURVE('',#195,#196,#225,.T.);
#160=EDGE_CURVE('',#197,#190,#226,.T.);
#161=EDGE_CURVE('',#196,#197,#227,.T.);
#162=EDGE_CURVE('',#197,#187,#228,.T.);
#163=EDGE_CURVE('',#198,#186,#229,.T.);
#164=EDGE_CURVE('',#198,#199,#34,.T.);
#165=EDGE_CURVE('',#199,#183,#230,.T.);
#166=EDGE_CURVE('',#200,#185,#231,.T.);
#167=EDGE_CURVE('',#200,#198,#232,.T.);
#168=EDGE_CURVE('',#201,#199,#233,.T.);
#169=EDGE_CURVE('',#201,#184,#234,.T.);
#170=EDGE_CURVE('',#200,#201,#35,.T.);
#171=EDGE_CURVE('',#194,#193,#36,.T.);
#172=VERTEX_POINT('',#461);
#173=VERTEX_POINT('',#462);
#174=VERTEX_POINT('',#464);
#175=VERTEX_POINT('',#466);
#176=VERTEX_POINT('',#470);
#177=VERTEX_POINT('',#471);
#178=VERTEX_POINT('',#473);
#179=VERTEX_POINT('',#475);
#180=VERTEX_POINT('',#479);
#181=VERTEX_POINT('',#481);
#182=VERTEX_POINT('',#483);
#183=VERTEX_POINT('',#485);
#184=VERTEX_POINT('',#487);
#185=VERTEX_POINT('',#489);
#186=VERTEX_POINT('',#491);
#187=VERTEX_POINT('',#493);
#188=VERTEX_POINT('',#495);
#189=VERTEX_POINT('',#497);
#190=VERTEX_POINT('',#501);
#191=VERTEX_POINT('',#503);
#192=VERTEX_POINT('',#505);
#193=VERTEX_POINT('',#511);
#194=VERTEX_POINT('',#515);
#195=VERTEX_POINT('',#519);
#196=VERTEX_POINT('',#523);
#197=VERTEX_POINT('',#527);
#198=VERTEX_POINT('',#533);
#199=VERTEX_POINT('',#535);
#200=VERTEX_POINT('',#539);
#201=VERTEX_POINT('',#543);
#202=LINE('',#460,#235);
#203=LINE('',#465,#236);
#204=LINE('',#472,#237);
#205=LINE('',#476,#238);
#206=LINE('',#478,#239);
#207=LINE('',#482,#240);
#208=LINE('',#486,#241);
#209=LINE('',#490,#242);
#210=LINE('',#494,#243);
#211=LINE('',#498,#244);
#212=LINE('',#500,#245);
#213=LINE('',#502,#246);
#214=LINE('',#504,#247);
#215=LINE('',#506,#248);
#216=LINE('',#507,#249);
#217=LINE('',#508,#250);
#218=LINE('',#510,#251);
#219=LINE('',#512,#252);
#220=LINE('',#514,#253);
#221=LINE('',#516,#254);
#222=LINE('',#518,#255);
#223=LINE('',#520,#256);
#224=LINE('',#522,#257);
#225=LINE('',#524,#258);
#226=LINE('',#526,#259);
#227=LINE('',#528,#260);
#228=LINE('',#530,#261);
#229=LINE('',#532,#262);
#230=LINE('',#536,#263);
#231=LINE('',#538,#264);
#232=LINE('',#540,#265);
#233=LINE('',#542,#266);
#234=LINE('',#544,#267);
#235=VECTOR('',#369,1.);
#236=VECTOR('',#372,1.);
#237=VECTOR('',#379,1.);
#238=VECTOR('',#382,1.);
#239=VECTOR('',#385,1.);
#240=VECTOR('',#388,1.);
#241=VECTOR('',#391,1.);
#242=VECTOR('',#394,1.);
#243=VECTOR('',#397,1.);
#244=VECTOR('',#400,1.);
#245=VECTOR('',#403,1.);
#246=VECTOR('',#404,1.);
#247=VECTOR('',#405,1.);
#248=VECTOR('',#406,1.);
#249=VECTOR('',#407,1.);
#250=VECTOR('',#408,1.);
#251=VECTOR('',#411,1.);
#252=VECTOR('',#412,1.);
#253=VECTOR('',#415,1.);
#254=VECTOR('',#416,1.);
#255=VECTOR('',#419,1.);
#256=VECTOR('',#420,1.);
#257=VECTOR('',#423,1.);
#258=VECTOR('',#424,1.);
#259=VECTOR('',#427,1.);
#260=VECTOR('',#428,1.);
#261=VECTOR('',#431,1.);
#262=VECTOR('',#434,1.);
#263=VECTOR('',#437,1.);
#264=VECTOR('',#440,1.);
#265=VECTOR('',#441,1.);
#266=VECTOR('',#444,1.);
#267=VECTOR('',#445,1.);
#268=EDGE_LOOP('',(#37,#38,#39,#40));
#269=EDGE_LOOP('',(#41,#42,#43,#44));
#270=EDGE_LOOP('',(#45,#46,#47,#48,#49,#50,#51,#52,#53,#54,#55,#56));
#271=EDGE_LOOP('',(#57,#58,#59,#60,#61,#62,#63,#64,#65));
#272=EDGE_LOOP('',(#66,#67,#68,#69,#70,#71));
#273=EDGE_LOOP('',(#72,#73,#74,#75,#76,#77));
#274=EDGE_LOOP('',(#78,#79,#80,#81));
#275=EDGE_LOOP('',(#82,#83,#84,#85));
#276=EDGE_LOOP('',(#86,#87,#88,#89));
#277=EDGE_LOOP('',(#90,#91,#92,#93));
#278=EDGE_LOOP('',(#94,#95,#96,#97,#98,#99,#100,#101,#102));
#279=EDGE_LOOP('',(#103,#104,#105,#106));
#280=EDGE_LOOP('',(#107,#108,#109,#110));
#281=EDGE_LOOP('',(#111,#112,#113,#114));
#282=EDGE_LOOP('',(#115,#116,#117,#118));
#283=EDGE_LOOP('',(#119,#120,#121,#122));
#284=EDGE_LOOP('',(#123,#124,#125,#126));
#285=FACE_BOUND('',#268,.T.);
#286=FACE_BOUND('',#269,.T.);
#287=FACE_BOUND('',#270,.T.);
#288=FACE_BOUND('',#271,.T.);
#289=FACE_BOUND('',#272,.T.);
#290=FACE_BOUND('',#273,.T.);
#291=FACE_BOUND('',#274,.T.);
#292=FACE_BOUND('',#275,.T.);
#293=FACE_BOUND('',#276,.T.);
#294=FACE_BOUND('',#277,.T.);
#295=FACE_BOUND('',#278,.T.);
#296=FACE_BOUND('',#279,.T.);
#297=FACE_BOUND('',#280,.T.);
#298=FACE_BOUND('',#281,.T.);
#299=FACE_BOUND('',#282,.T.);
#300=FACE_BOUND('',#283,.T.);
#301=FACE_BOUND('',#284,.T.);
#302=CYLINDRICAL_SURFACE('',#336,0.0052);
#303=CYLINDRICAL_SURFACE('',#342,0.015);
#304=CYLINDRICAL_SURFACE('',#359,0.0052);
#305=CYLINDRICAL_SURFACE('',#362,0.009);
#306=ADVANCED_FACE('',(#285),#302,.F.);
#307=ADVANCED_FACE('',(#286),#12,.F.);
#308=ADVANCED_FACE('',(#287),#303,.T.);
#309=ADVANCED_FACE('',(#288),#13,.T.);
#310=ADVANCED_FACE('',(#289),#14,.T.);
#311=ADVANCED_FACE('',(#290),#15,.F.);
#312=ADVANCED_FACE('',(#291),#16,.F.);
#313=ADVANCED_FACE('',(#292),#17,.F.);
#314=ADVANCED_FACE('',(#293),#18,.F.);
#315=ADVANCED_FACE('',(#294),#19,.F.);
#316=ADVANCED_FACE('',(#295),#20,.F.);
#317=ADVANCED_FACE('',(#296),#21,.F.);
#318=ADVANCED_FACE('',(#297),#22,.T.);
#319=ADVANCED_FACE('',(#298),#304,.F.);
#320=ADVANCED_FACE('',(#299),#23,.T.);
#321=ADVANCED_FACE('',(#300),#305,.F.);
#322=ADVANCED_FACE('',(#301),#24,.T.);
#323=CLOSED_SHELL('',(#306,#307,#308,#309,#310,#311,#312,#313,#314,#315,
#316,#317,#318,#319,#320,#321,#322));
#324=STYLED_ITEM('',(#325),#332);
#325=PRESENTATION_STYLE_ASSIGNMENT((#326));
#326=SURFACE_STYLE_USAGE(.BOTH.,#327);
#327=SURFACE_SIDE_STYLE('',(#328));
#328=SURFACE_STYLE_FILL_AREA(#329);
#329=FILL_AREA_STYLE('',(#330));
#330=FILL_AREA_STYLE_COLOUR('',#331);
#331=COLOUR_RGB('',0.615686274509804,0.811764705882353,0.929411764705882);
#332=MANIFOLD_SOLID_BREP('Part 1',#323);
#333=SHAPE_DEFINITION_REPRESENTATION(#557,#334);
#334=SHAPE_REPRESENTATION('Part 1',(#335),#552);
#335=AXIS2_PLACEMENT_3D('',#458,#365,#366);
#336=AXIS2_PLACEMENT_3D('',#459,#367,#368);
#337=AXIS2_PLACEMENT_3D('',#463,#370,#371);
#338=AXIS2_PLACEMENT_3D('',#467,#373,#374);
#339=AXIS2_PLACEMENT_3D('',#468,#375,#376);
#340=AXIS2_PLACEMENT_3D('',#469,#377,#378);
#341=AXIS2_PLACEMENT_3D('',#474,#380,#381);
#342=AXIS2_PLACEMENT_3D('',#477,#383,#384);
#343=AXIS2_PLACEMENT_3D('',#480,#386,#387);
#344=AXIS2_PLACEMENT_3D('',#484,#389,#390);
#345=AXIS2_PLACEMENT_3D('',#488,#392,#393);
#346=AXIS2_PLACEMENT_3D('',#492,#395,#396);
#347=AXIS2_PLACEMENT_3D('',#496,#398,#399);
#348=AXIS2_PLACEMENT_3D('',#499,#401,#402);
#349=AXIS2_PLACEMENT_3D('',#509,#409,#410);
#350=AXIS2_PLACEMENT_3D('',#513,#413,#414);
#351=AXIS2_PLACEMENT_3D('',#517,#417,#418);
#352=AXIS2_PLACEMENT_3D('',#521,#421,#422);
#353=AXIS2_PLACEMENT_3D('',#525,#425,#426);
#354=AXIS2_PLACEMENT_3D('',#529,#429,#430);
#355=AXIS2_PLACEMENT_3D('',#531,#432,#433);
#356=AXIS2_PLACEMENT_3D('',#534,#435,#436);
#357=AXIS2_PLACEMENT_3D('',#537,#438,#439);
#358=AXIS2_PLACEMENT_3D('',#541,#442,#443);
#359=AXIS2_PLACEMENT_3D('',#545,#446,#447);
#360=AXIS2_PLACEMENT_3D('',#546,#448,#449);
#361=AXIS2_PLACEMENT_3D('',#547,#450,#451);
#362=AXIS2_PLACEMENT_3D('',#548,#452,#453);
#363=AXIS2_PLACEMENT_3D('',#549,#454,#455);
#364=AXIS2_PLACEMENT_3D('',#550,#456,#457);
#365=DIRECTION('',(0.,0.,1.));
#366=DIRECTION('',(1.,0.,0.));
#367=DIRECTION('',(0.,0.,-1.));
#368=DIRECTION('',(-1.,0.,0.));
#369=DIRECTION('',(0.,0.,1.));
#370=DIRECTION('',(0.,0.,-1.));
#371=DIRECTION('',(-1.,0.,0.));
#372=DIRECTION('',(0.,0.,1.));
#373=DIRECTION('',(0.,0.,1.));
#374=DIRECTION('',(1.,0.,0.));
#375=DIRECTION('',(0.,0.,1.));
#376=DIRECTION('',(1.,0.,0.));
#377=DIRECTION('',(0.,0.,-1.));
#378=DIRECTION('',(-1.,0.,0.));
#379=DIRECTION('',(0.,-1.,0.));
#380=DIRECTION('',(0.,0.,1.));
#381=DIRECTION('',(1.,0.,0.));
#382=DIRECTION('',(0.,-1.,0.));
#383=DIRECTION('',(0.,0.,-1.));
#384=DIRECTION('',(-1.,0.,0.));
#385=DIRECTION('',(0.,0.,1.));
#386=DIRECTION('',(0.,0.,1.));
#387=DIRECTION('',(1.,0.,0.));
#388=DIRECTION('',(0.,0.,-1.));
#389=DIRECTION('',(0.,0.,1.));
#390=DIRECTION('',(1.,0.,0.));
#391=DIRECTION('',(0.,0.,-1.));
#392=DIRECTION('',(0.,0.,1.));
#393=DIRECTION('',(1.,0.,0.));
#394=DIRECTION('',(0.,0.,-1.));
#395=DIRECTION('',(0.,0.,1.));
#396=DIRECTION('',(1.,0.,0.));
#397=DIRECTION('',(0.,0.,-1.));
#398=DIRECTION('',(0.,0.,1.));
#399=DIRECTION('',(1.,0.,0.));
#400=DIRECTION('',(0.,0.,1.));
#401=DIRECTION('',(0.,0.,1.));
#402=DIRECTION('',(1.,0.,0.));
#403=DIRECTION('',(2.0032986309951E-16,-1.,0.));
#404=DIRECTION('',(0.866025403784439,-0.5,0.));
#405=DIRECTION('',(0.866025403784439,0.5,0.));
#406=DIRECTION('',(-5.50907123523654E-16,1.,0.));
#407=DIRECTION('',(0.,-1.,0.));
#408=DIRECTION('',(0.,-1.,0.));
#409=DIRECTION('',(-1.,0.,0.));
#410=DIRECTION('',(0.,0.,1.));
#411=DIRECTION('',(0.,0.,-1.));
#412=DIRECTION('',(0.,-1.,0.));
#413=DIRECTION('',(-1.,0.,0.));
#414=DIRECTION('',(0.,0.,1.));
#415=DIRECTION('',(0.,0.,-1.));
#416=DIRECTION('',(0.,-1.,0.));
#417=DIRECTION('',(-1.,-5.50907123523654E-16,0.));
#418=DIRECTION('',(5.50907123523654E-16,-1.,0.));
#419=DIRECTION('',(0.,0.,-1.));
#420=DIRECTION('',(-5.50907123523654E-16,1.,0.));
#421=DIRECTION('',(-0.5,0.866025403784439,0.));
#422=DIRECTION('',(-0.866025403784439,-0.5,0.));
#423=DIRECTION('',(0.,0.,-1.));
#424=DIRECTION('',(0.866025403784439,0.5,0.));
#425=DIRECTION('',(0.5,0.866025403784439,0.));
#426=DIRECTION('',(-0.866025403784439,0.5,0.));
#427=DIRECTION('',(0.,0.,-1.));
#428=DIRECTION('',(0.866025403784439,-0.5,0.));
#429=DIRECTION('',(1.,2.0032986309951E-16,0.));
#430=DIRECTION('',(-2.0032986309951E-16,1.,0.));
#431=DIRECTION('',(2.0032986309951E-16,-1.,0.));
#432=DIRECTION('',(0.,0.,1.));
#433=DIRECTION('',(1.,0.,0.));
#434=DIRECTION('',(0.,-1.,0.));
#435=DIRECTION('',(0.,0.,1.));
#436=DIRECTION('',(1.,0.,0.));
#437=DIRECTION('',(0.,-1.,0.));
#438=DIRECTION('',(1.,0.,0.));
#439=DIRECTION('',(0.,0.,-1.));
#440=DIRECTION('',(0.,-1.,0.));
#441=DIRECTION('',(0.,0.,-1.));
#442=DIRECTION('',(1.,0.,0.));
#443=DIRECTION('',(0.,0.,-1.));
#444=DIRECTION('',(0.,0.,-1.));
#445=DIRECTION('',(0.,-1.,0.));
#446=DIRECTION('',(0.,0.,-1.));
#447=DIRECTION('',(-1.,0.,0.));
#448=DIRECTION('',(0.,0.,1.));
#449=DIRECTION('',(1.,0.,0.));
#450=DIRECTION('',(0.,0.,1.));
#451=DIRECTION('',(1.,0.,0.));
#452=DIRECTION('',(0.,0.,-1.));
#453=DIRECTION('',(-1.,0.,0.));
#454=DIRECTION('',(0.,0.,-1.));
#455=DIRECTION('',(-1.,0.,0.));
#456=DIRECTION('',(0.,0.,-1.));
#457=DIRECTION('',(1.,0.,0.));
#458=CARTESIAN_POINT('',(0.,0.,0.));
#459=CARTESIAN_POINT('',(0.,3.18408167778312E-19,0.015));
#460=CARTESIAN_POINT('',(-0.004,-0.00332264954516723,-0.01));
#461=CARTESIAN_POINT('',(-0.004,-0.00332264954516723,0.0035));
#462=CARTESIAN_POINT('',(-0.004,-0.00332264954516723,0.015));
#463=CARTESIAN_POINT('',(0.,3.18408167778312E-19,0.0035));
#464=CARTESIAN_POINT('',(0.004,-0.00332264954516723,0.0035));
#465=CARTESIAN_POINT('',(0.004,-0.00332264954516723,-0.01));
#466=CARTESIAN_POINT('',(0.004,-0.00332264954516723,0.015));
#467=CARTESIAN_POINT('',(0.,3.18408167778312E-19,0.015));
#468=CARTESIAN_POINT('',(0.,0.,0.));
#469=CARTESIAN_POINT('',(0.,-5.51091059616309E-19,0.));
#470=CARTESIAN_POINT('',(-0.004,-0.00806225774829855,0.));
#471=CARTESIAN_POINT('',(0.004,-0.00806225774829855,0.));
#472=CARTESIAN_POINT('',(-0.004,0.,0.));
#473=CARTESIAN_POINT('',(-0.004,-0.014456832294801,0.));
#474=CARTESIAN_POINT('',(0.,9.18485099360515E-19,0.));
#475=CARTESIAN_POINT('',(0.004,-0.014456832294801,0.));
#476=CARTESIAN_POINT('',(0.004,0.,0.));
#477=CARTESIAN_POINT('',(0.,9.18485099360515E-19,0.015));
#478=CARTESIAN_POINT('',(-0.004,-0.014456832294801,-0.01));
#479=CARTESIAN_POINT('',(-0.004,-0.014456832294801,0.015));
#480=CARTESIAN_POINT('',(0.,9.18485099360515E-19,0.015));
#481=CARTESIAN_POINT('',(-0.00731,-0.0130982403398319,0.015));
#482=CARTESIAN_POINT('',(-0.00731,-0.0130982403398319,0.0185));
#483=CARTESIAN_POINT('',(-0.00731,-0.0130982403398319,0.0185));
#484=CARTESIAN_POINT('',(0.,9.18485099360515E-19,0.0185));
#485=CARTESIAN_POINT('',(-0.004,-0.014456832294801,0.0185));
#486=CARTESIAN_POINT('',(-0.004,-0.014456832294801,0.0535));
#487=CARTESIAN_POINT('',(-0.004,-0.014456832294801,0.0535));
#488=CARTESIAN_POINT('',(0.,9.18485099360515E-19,0.0535));
#489=CARTESIAN_POINT('',(0.004,-0.014456832294801,0.0535));
#490=CARTESIAN_POINT('',(0.004,-0.014456832294801,0.0535));
#491=CARTESIAN_POINT('',(0.004,-0.014456832294801,0.0185));
#492=CARTESIAN_POINT('',(0.,9.18485099360515E-19,0.0185));
#493=CARTESIAN_POINT('',(0.00731,-0.0130982403398319,0.0185));
#494=CARTESIAN_POINT('',(0.00731,-0.0130982403398319,0.0185));
#495=CARTESIAN_POINT('',(0.00731,-0.0130982403398319,0.015));
#496=CARTESIAN_POINT('',(0.,9.18485099360515E-19,0.015));
#497=CARTESIAN_POINT('',(0.004,-0.014456832294801,0.015));
#498=CARTESIAN_POINT('',(0.004,-0.014456832294801,-0.01));
#499=CARTESIAN_POINT('',(0.,0.,0.015));
#500=CARTESIAN_POINT('',(0.00731,-0.00443890493602787,0.015));
#501=CARTESIAN_POINT('',(0.00731,0.00422043046777617,0.015));
#502=CARTESIAN_POINT('',(0.003655,0.00633064570166425,0.015));
#503=CARTESIAN_POINT('',(-4.33680868994202E-19,0.00844086093555233,0.015));
#504=CARTESIAN_POINT('',(-0.003655,0.00633064570166425,0.015));
#505=CARTESIAN_POINT('',(-0.00731,0.00422043046777616,0.015));
#506=CARTESIAN_POINT('',(-0.00731,-0.00443890493602788,0.015));
#507=CARTESIAN_POINT('',(-0.004,-0.00982841614740048,0.015));
#508=CARTESIAN_POINT('',(0.004,-0.00888974091998409,0.015));
#509=CARTESIAN_POINT('',(0.004,-0.00888974091998409,-0.01));
#510=CARTESIAN_POINT('',(0.004,-0.00806225774829855,0.0035));
#511=CARTESIAN_POINT('',(0.004,-0.00806225774829855,0.0035));
#512=CARTESIAN_POINT('',(0.004,-0.00888974091998409,0.0035));
#513=CARTESIAN_POINT('',(-0.004,-0.00982841614740048,-0.01));
#514=CARTESIAN_POINT('',(-0.004,-0.00806225774829855,0.0035));
#515=CARTESIAN_POINT('',(-0.004,-0.00806225774829855,0.0035));
#516=CARTESIAN_POINT('',(-0.004,-0.00982841614740048,0.0035));
#517=CARTESIAN_POINT('',(-0.00731,-0.00443890493602788,0.0185));
#518=CARTESIAN_POINT('',(-0.00731,0.00422043046777616,0.0185));
#519=CARTESIAN_POINT('',(-0.00731,0.00422043046777616,0.0185));
#520=CARTESIAN_POINT('',(-0.00731,-0.00443890493602788,0.0185));
#521=CARTESIAN_POINT('',(-0.003655,0.00633064570166425,0.0185));
#522=CARTESIAN_POINT('',(-4.33680868994202E-19,0.00844086093555233,0.0185));
#523=CARTESIAN_POINT('',(-4.33680868994202E-19,0.00844086093555233,0.0185));
#524=CARTESIAN_POINT('',(-0.003655,0.00633064570166425,0.0185));
#525=CARTESIAN_POINT('',(0.003655,0.00633064570166425,0.0185));
#526=CARTESIAN_POINT('',(0.00731,0.00422043046777617,0.0185));
#527=CARTESIAN_POINT('',(0.00731,0.00422043046777617,0.0185));
#528=CARTESIAN_POINT('',(0.003655,0.00633064570166425,0.0185));
#529=CARTESIAN_POINT('',(0.00731,-0.00443890493602787,0.0185));
#530=CARTESIAN_POINT('',(0.00731,-0.00443890493602787,0.0185));
#531=CARTESIAN_POINT('',(0.,0.000271583852599521,0.0185));
#532=CARTESIAN_POINT('',(0.004,-0.00888974091998409,0.0185));
#533=CARTESIAN_POINT('',(0.004,-0.00332264954516723,0.0185));
#534=CARTESIAN_POINT('',(4.24283639004467E-19,-1.7347234759768E-18,0.0185));
#535=CARTESIAN_POINT('',(-0.004,-0.00332264954516723,0.0185));
#536=CARTESIAN_POINT('',(-0.004,-0.00888974091998409,0.0185));
#537=CARTESIAN_POINT('',(0.004,-0.00888974091998409,0.0535));
#538=CARTESIAN_POINT('',(0.004,-0.00888974091998409,0.0535));
#539=CARTESIAN_POINT('',(0.004,-0.00332264954516723,0.0535));
#540=CARTESIAN_POINT('',(0.004,-0.00332264954516723,0.0535));
#541=CARTESIAN_POINT('',(-0.004,-0.00888974091998409,0.0535));
#542=CARTESIAN_POINT('',(-0.004,-0.00332264954516723,0.0535));
#543=CARTESIAN_POINT('',(-0.004,-0.00332264954516723,0.0535));
#544=CARTESIAN_POINT('',(-0.004,-0.00888974091998409,0.0535));
#545=CARTESIAN_POINT('',(4.24283639004467E-19,-1.7347234759768E-18,0.0535));
#546=CARTESIAN_POINT('',(4.24283639004467E-19,-1.7347234759768E-18,0.0535));
#547=CARTESIAN_POINT('',(0.,0.000271583852599521,0.0535));
#548=CARTESIAN_POINT('',(0.,-5.51091059616309E-19,0.0035));
#549=CARTESIAN_POINT('',(0.,-5.51091059616309E-19,0.0035));
#550=CARTESIAN_POINT('',(0.,0.000271583852599525,0.0035));
#551=MECHANICAL_DESIGN_GEOMETRIC_PRESENTATION_REPRESENTATION('',(#324),
#552);
#552=(
GEOMETRIC_REPRESENTATION_CONTEXT(3)
GLOBAL_UNCERTAINTY_ASSIGNED_CONTEXT((#553))
GLOBAL_UNIT_ASSIGNED_CONTEXT((#556,#555,#554))
REPRESENTATION_CONTEXT('Part 1','TOP_LEVEL_ASSEMBLY_PART')
);
#553=UNCERTAINTY_MEASURE_WITH_UNIT(LENGTH_MEASURE(1.E-8),#556,
'DISTANCE_ACCURACY_VALUE','Maximum Tolerance applied to model');
#554=(
NAMED_UNIT(*)
SI_UNIT($,.STERADIAN.)
SOLID_ANGLE_UNIT()
);
#555=(
NAMED_UNIT(*)
PLANE_ANGLE_UNIT()
SI_UNIT($,.RADIAN.)
);
#556=(
LENGTH_UNIT()
NAMED_UNIT(*)
SI_UNIT($,.METRE.)
);
#557=PRODUCT_DEFINITION_SHAPE('','',#558);
#558=PRODUCT_DEFINITION('','',#560,#559);
#559=PRODUCT_DEFINITION_CONTEXT('',#566,'design');
#560=PRODUCT_DEFINITION_FORMATION_WITH_SPECIFIED_SOURCE('','',#562,
 .NOT_KNOWN.);
#561=PRODUCT_RELATED_PRODUCT_CATEGORY('','',(#562));
#562=PRODUCT('Part 1','Part 1','Part 1',(#564));
#563=PRODUCT_CATEGORY('','');
#564=PRODUCT_CONTEXT('',#566,'mechanical');
#565=APPLICATION_PROTOCOL_DEFINITION('international standard',
'ap242_managed_model_based_3d_engineering',2020,#566);
#566=APPLICATION_CONTEXT('managed model based 3d engineering');
ENDSEC;
END-ISO-10303-21;
